<?xml version="1.0" standalone="no"?>
<!DOCTYPE svg PUBLIC "-//W3C//DTD SVG 1.1//EN" "http://www.w3.org/Graphics/SVG/1.1/DTD/svg11.dtd" >
<svg>
<metadata>
Created by FontForge 20090622 at Tue Oct  6 13:03:18 2015
 By deploy user
Copyright (c) 2013 by BPG-InfoTech. All rights reserved.
</metadata>
<defs>
<font id="!BPGAnnaCaps" horiz-adv-x="500" >
  <font-face 
    font-family="! BPG Anna Caps"
    font-weight="400"
    font-variant="small-caps"
    font-stretch="normal"
    units-per-em="1000"
    panose-1="2 0 2 6 0 0 0 2 0 4"
    ascent="750"
    descent="-250"
    x-height="514"
    cap-height="714"
    bbox="-353 -201 1054 922"
    underline-thickness="50"
    underline-position="-75"
    unicode-range="U+0020-U+2212"
  />
<missing-glyph 
d="M415 483h-339v-447h339v447zM451 521v-521h-413v521h413z" />
    <glyph glyph-name=".notdef" 
d="M415 483h-339v-447h339v447zM451 521v-521h-413v521h413z" />
    <glyph glyph-name="NULL" horiz-adv-x="0" 
 />
    <glyph glyph-name="nonmarkingreturn" horiz-adv-x="278" 
 />
    <glyph glyph-name="space" unicode=" " horiz-adv-x="278" 
 />
    <glyph glyph-name="quotedbl" unicode="&#x22;" horiz-adv-x="278" 
d="M164 462v241h48v-241h-48zM58 462v241h48v-241h-48z" />
    <glyph glyph-name="numbersign" unicode="#" horiz-adv-x="556" 
d="M332 264q3 19 5 37l4 36q2 17 4.5 32t4.5 33h-133q-2 -14 -3 -27.5t-3 -27.5q-3 -21 -6.5 -40.5t-6.5 -42.5h134zM226 450h133q4 27 6.5 53t6.5 53l8 58t8 57h47l-28 -221h107v-48h-115q-2 -13 -4 -24t-4 -24q-4 -23 -7 -44.5t-6 -45.5h109v-48h-116l-14.5 -108
l-14.5 -108h-48l29 216h-133q-4 -27 -7 -54.5t-8 -55.5q-4 -26 -7.5 -54.5t-5.5 -51.5h-50l31 216h-117v48h126q2 14 3 26t3 25q3 23 5 43t6 44h-116v48h125q4 27 7 53t7 53l8 58t8 57h48z" />
    <glyph glyph-name="dollar" unicode="$" horiz-adv-x="556" 
d="M291 31q35 1 69 10.5t61 27.5t43.5 45.5t16.5 65.5q0 39 -17.5 65t-44.5 42.5t-60.5 26.5t-65.5 18h-2v-301zM291 7v24h-28zM47 241q0 -53 14 -91t40 -63.5t62 -38.5t81 -16v309q-2 0 -4.5 1t-4.5 2q-41 9 -80 20.5t-69.5 31.5t-49 52t-18.5 83t20.5 86t52.5 57
t72.5 32.5t80.5 12.5v40h47v-41q47 -3 87 -17.5t69.5 -42t48 -70t21.5 -102.5h-49q-1 46 -15 79.5t-38 56t-56 34t-68 14.5q0 -73 0.5 -144.5t0.5 -144.5q7 -2 13 -3.5l10 -2.5q45 -12 84 -24t68 -32.5t45.5 -53t16.5 -85.5q0 -50 -21 -85.5t-54.5 -59.5t-76.5 -36t-86 -14
v-83h-47v84q-55 3 -101 20t-78.5 49.5t-50 81t-15.5 115.5h35zM66 531q0 -36 14.5 -59.5t38.5 -39t56.5 -25t68.5 -16.5v280q-32 -2 -63.5 -9.5t-57 -24t-41.5 -42.5t-16 -64zM244 698v-27h26z" />
    <glyph glyph-name="percent" unicode="%" horiz-adv-x="685" 
d="M590 703l-468 -734h-55l467 734h56zM332 163q0 39 10.5 71.5t31 56t49.5 36.5t67 13q39 0 69.5 -13t50.5 -36.5t30.5 -55.5t10.5 -71q0 -36 -10.5 -67.5t-31 -55.5t-50.5 -38t-69 -14q-41 0 -70.5 14t-49 38t-29 55.5t-9.5 66.5zM62 504q0 -26 7 -48.5t20.5 -40
t34.5 -27.5t49 -10t49 10.5t35 27.5t21.5 40t7.5 48q0 60 -27.5 95.5t-85.5 35.5q-59 0 -85 -37.5t-26 -93.5zM15 504q0 39 10.5 71.5t31 56t49.5 37t67 13.5q39 0 69.5 -13t50.5 -36.5t30.5 -56t10.5 -71.5q0 -35 -10.5 -66.5t-31 -55.5t-50.5 -38t-69 -14
q-41 0 -70.5 14.5t-49 38.5t-29 55t-9.5 65zM380 163q0 -26 6.5 -49t20 -40.5t34.5 -27.5t49 -10t49 10.5t35.5 27.5t22 40t7.5 49q0 59 -28 94t-86 35t-84 -36.5t-26 -92.5z" />
    <glyph glyph-name="ampersand" unicode="&#x26;" horiz-adv-x="574" 
d="M518 0l-76 94q-31 -48 -80.5 -78.5t-118.5 -30.5q-38 0 -75 12t-66.5 35.5t-47.5 57t-18 76.5q0 42 16 75t41.5 60t56.5 48.5t62 40.5q-2 2 -4.5 5.5t-4.5 5.5v-1q1 -1 -2.5 3.5l-8.5 10.5q-13 16 -26 34.5t-24 37.5t-18 38.5t-7 38.5q0 36 13.5 62.5t35 43.5t49 25.5
t55.5 8.5q31 0 58.5 -9.5t48.5 -27.5t33 -44t12 -59q0 -31 -11 -55.5t-28.5 -44.5t-39.5 -37l-43 -33l-3 -3l-10 -5t-8 -6l22.5 -29t22.5 -28l52.5 -67l55.5 -70q6 20 9.5 45.5t1.5 59.5h49q1 -51 -5 -84.5t-20 -63.5l16.5 -19t15.5 -21l42 -53t39 -49h-62zM243 31
q62 0 103.5 29t65.5 77l-24.5 30.5l-25.5 31.5l-62.5 76.5l-61.5 76.5q-2 -1 -5 -4l-53 -34t-48.5 -40t-35 -48.5t-13.5 -59.5t13.5 -58.5t36 -42.5t51.5 -25.5t59 -8.5zM414 140q-1 -1 -1 -1.5t-1 -1.5l2 -2v5zM228 372q2 -3 2.5 -5.5t1.5 -4.5q1 -3 1 -4q1 -1 3.5 -4
t3.5 -4l21 19zM165 565q0 -27 20.5 -60.5t63.5 -89.5q2 2 4.5 3t4.5 3l38.5 27t38 33t28.5 38.5t11 43.5q0 43 -31 67.5t-73 24.5q-43 0 -74 -24t-31 -66zM249 415q-1 -1 -2 -1.5t-2 -1.5l8 -1z" />
    <glyph glyph-name="quotesingle" unicode="'" horiz-adv-x="167" 
d="M106 703v-241h-48v241h48z" />
    <glyph glyph-name="parenleft" unicode="(" horiz-adv-x="222" 
d="M210 700q-54 -96 -81.5 -202t-27.5 -217q0 -114 30 -226t90 -221h-50q-29 57 -51 111t-37 108t-22.5 110t-7.5 118q0 112 30 223t87 215h29z" />
    <glyph glyph-name="parenright" unicode=")" horiz-adv-x="222" 
d="M5 -148q54 97 82 203.5t28 215.5q0 112 -30.5 225t-89.5 223h50q29 -57 51 -111t36.5 -108t22 -110.5t7.5 -118.5q0 -113 -29.5 -223.5t-86.5 -213.5h-30z" />
    <glyph glyph-name="asterisk" unicode="*" horiz-adv-x="352" 
d="M193 577q29 10 61 20t61 20l9 -49l-116 -38q11 -17 23.5 -32l25.5 -32q6 -8 13.5 -17t12.5 -16l-38 -29l-77 99q-6 -8 -13 -16t-13 -16l-25 -32t-25 -31l-37 30l77 93l-18 6t-18 5l-40.5 14.5t-37.5 12.5l13 46l115 -39v127h47v-126z" />
    <glyph glyph-name="plus" unicode="+" horiz-adv-x="600" 
d="M316 506v-229h228v-47h-228v-230h-48v230h-229v47h229v229h48z" />
    <glyph glyph-name="comma" unicode="," horiz-adv-x="278" 
d="M158 15q0 -47 -15 -79.5t-55 -60.5v52q12 13 17.5 33t5.5 55v107h47v-107z" />
    <glyph glyph-name="hyphen" unicode="-" horiz-adv-x="333" 
d="M259 291v-48h-194v48h194z" />
    <glyph glyph-name="period" unicode="." horiz-adv-x="278" 
d="M111 0v122h48v-122h-48z" />
    <glyph glyph-name="slash" unicode="/" horiz-adv-x="333" 
d="M297 719h51l-322 -734h-49z" />
    <glyph glyph-name="zero" unicode="0" horiz-adv-x="556" 
d="M527 335q0 -63 -12.5 -125t-42 -111t-79 -79.5t-123.5 -30.5t-123.5 30.5t-79 79.5t-42 111t-12.5 125t12.5 125t42 111.5t79 80t123.5 30.5t123.5 -30.5t79 -80t42 -111.5t12.5 -125zM479 335q0 51 -9.5 104.5t-33.5 97t-64.5 71t-101.5 27.5q-62 0 -102.5 -27.5
t-64.5 -71t-33.5 -97t-9.5 -104.5t9.5 -104.5t33.5 -96.5t64.5 -70.5t102.5 -27.5q61 0 101.5 27.5t64.5 70.5t33.5 96.5t9.5 104.5z" />
    <glyph glyph-name="one" unicode="1" horiz-adv-x="556" 
d="M273 0v594q-32 -35 -77.5 -59t-95.5 -37v51q31 10 55.5 21.5t45 26t39.5 33t39 41.5h42v-671h-48z" />
    <glyph glyph-name="two" unicode="2" horiz-adv-x="556" 
d="M507 0h-461q-1 45 14.5 80.5t41 65t58.5 54.5l67 49l19 13q2 1 4 3t4 3h-1q36 24 70 49.5t60.5 53.5t42.5 58.5t16 65.5q0 34 -12.5 60.5t-34.5 44t-52 26.5t-65 9q-46 0 -79 -15.5t-54 -42.5t-30.5 -64t-9.5 -81h-48q1 120 55.5 185t165.5 65q44 0 82.5 -11.5t67 -35
t45 -58.5t16.5 -82q0 -41 -21 -79.5t-53 -73.5t-71 -66t-76 -57q-29 -20 -56.5 -41t-51 -42.5t-40.5 -43.5t-24 -44h411v-48z" />
    <glyph glyph-name="three" unicode="3" horiz-adv-x="556" 
d="M49 454q-1 57 15 99.5t47 71t74.5 43t96.5 14.5q41 0 80 -9.5t69 -30t48.5 -53t18.5 -79.5q0 -55 -27 -93t-67 -57q45 -18 75.5 -58.5t30.5 -109.5q0 -48 -18.5 -86t-50 -64t-74 -39.5t-89.5 -13.5q-58 0 -105 17t-80 49.5t-49.5 80.5t-11.5 110h48q-4 -51 9 -90
t39.5 -66t64.5 -40.5t85 -13.5q36 0 69.5 10t59 29.5t41 49t15.5 67.5q0 37 -13 64t-35.5 44t-54 25.5t-67.5 10.5h-61v48h61q28 0 56.5 6.5t50.5 21.5t36 39t14 59q-1 34 -15.5 58t-38 39t-53.5 21.5t-61 6.5q-87 0 -137 -48t-48 -145h-37z" />
    <glyph glyph-name="four" unicode="4" horiz-adv-x="556" 
d="M25 209l328 462h46v-456h116v-48h-116v-167h-48v167h-326v42zM351 215v372l-132.5 -186.5l-132.5 -185.5h265zM367 627l-16 15v-55l25 36l-5 6z" />
    <glyph glyph-name="five" unicode="5" horiz-adv-x="556" 
d="M115 416q30 24 68 36t82 12q53 0 96.5 -17.5t75 -49t48.5 -74.5t17 -95q0 -55 -17 -99t-48.5 -75t-75 -48t-96.5 -17t-97.5 16.5t-76 47.5t-48.5 76.5t-15 104.5h48q-2 -47 11 -83.5t38.5 -62t61 -39t78.5 -13.5q88 0 138.5 52t50.5 140q0 41 -13.5 75.5t-38.5 59.5
t-60 39t-77 14q-53 0 -99 -24.5t-72 -73.5h-50l75 353h356v-48h-317z" />
    <glyph glyph-name="six" unicode="6" horiz-adv-x="556" 
d="M451 500q-9 41 -28 67t-42 41t-48.5 21t-47.5 6q-56 0 -94 -25t-61.5 -65t-35 -89t-14.5 -98q30 45 82 74t112 29q45 0 87.5 -17t75.5 -48t53 -74.5t20 -96.5q0 -51 -19 -94.5t-51.5 -75t-75.5 -49t-90 -17.5q-35 0 -65.5 9t-56 24t-45 34t-32.5 39q-29 47 -37 102
t-8 121q0 62 12 127t41.5 117.5t78.5 86t124 33.5q45 0 81.5 -15t64.5 -40.5t45.5 -60.5t23.5 -75h-37zM463 225q0 39 -15 73.5t-41 60t-60 40.5t-73 15t-73.5 -15t-60 -40.5t-40.5 -60t-15 -73.5t15 -73t40.5 -60t60 -41t73.5 -15t73 15t60 41t41 60t15 73z" />
    <glyph glyph-name="seven" unicode="7" horiz-adv-x="556" 
d="M51 671h438v-47q-65 -66 -118.5 -134.5t-91.5 -144.5t-58.5 -161t-20.5 -184h-48q-1 96 17.5 181.5t53.5 162.5t85 146t111 133h-368v48z" />
    <glyph glyph-name="eight" unicode="8" horiz-adv-x="556" 
d="M438 505q0 37 -14.5 62t-38 40t-53.5 21.5t-62 6.5t-62 -6.5t-53.5 -21.5t-37.5 -40t-14 -62q0 -30 15 -52t39 -36.5t53.5 -21t59.5 -6.5t60 6.5t54 21t39 36.5t15 52zM485 505q0 -49 -24.5 -83t-66.5 -52q57 -21 90.5 -66t33.5 -110q0 -54 -20 -93t-54 -63.5t-79 -36.5
t-95 -12t-95 12t-79 36.5t-54 63.5t-20 93q0 66 33 110.5t90 66.5q-40 18 -65 52t-25 82t16.5 81.5t46 54.5t68.5 31t84 10t84 -10t68.5 -31t46 -54.5t16.5 -81.5zM470 194q0 42 -17 70t-44.5 45.5t-63.5 24.5t-75 7t-75 -7t-63.5 -24.5t-44.5 -45.5t-17 -70q0 -43 16.5 -73
t44 -49t63.5 -27.5t76 -8.5q39 0 75.5 8.5t64 27.5t44 49t16.5 73z" />
    <glyph glyph-name="nine" unicode="9" horiz-adv-x="556" 
d="M455 446q0 39 -15 73t-40.5 60t-60 41t-73.5 15t-73.5 -15t-60 -41t-40 -60t-14.5 -73t14.5 -73.5t40 -60t60 -40.5t73.5 -15t73.5 15t60 40.5t40.5 60t15 73.5zM89 171q9 -41 27.5 -67t42 -41t49 -21t47.5 -6q57 0 95 25t61.5 65t35 89.5t14.5 98.5q-31 -45 -82 -74.5
t-113 -29.5q-44 0 -86.5 17t-75.5 48t-53.5 74.5t-20.5 96.5q0 51 19.5 94.5t52 75t75 49t89.5 17.5q34 0 64.5 -9.5t56 -25t45.5 -34.5t33 -38q29 -45 37.5 -102t8.5 -120t-12 -127.5t-41 -117t-79 -86t-125 -33.5q-44 0 -81 14.5t-64.5 40.5t-45 60.5t-23.5 75.5h37z" />
    <glyph glyph-name="colon" unicode=":" horiz-adv-x="278" 
d="M111 514h48v-122h-48v122zM111 122h48v-122h-48v122z" />
    <glyph glyph-name="semicolon" unicode=";" horiz-adv-x="278" 
d="M111 514h47v-122h-47v122zM158 15q0 -47 -15 -79.5t-55 -60.5v52q12 13 17.5 33t5.5 55v107h47v-107z" />
    <glyph glyph-name="less" unicode="&#x3c;" horiz-adv-x="600" 
d="M37 233v40l508 249v-51l-447 -218l223.5 -109.5l223.5 -108.5v-50z" />
    <glyph glyph-name="equal" unicode="=" horiz-adv-x="600" 
d="M39 185h505v-47h-505v47zM39 369h505v-48h-505v48z" />
    <glyph glyph-name="greater" unicode="&#x3e;" horiz-adv-x="600" 
d="M37 471v51l508 -249v-40l-508 -248v50l447 218z" />
    <glyph glyph-name="question" unicode="?" 
d="M211 122h48v-122h-48v122zM26 477q-2 54 12 98.5t42.5 76.5t70 49.5t94.5 17.5q42 0 78.5 -11.5t63.5 -33.5t42.5 -54t15.5 -73q0 -35 -9 -62t-22 -47.5t-28.5 -35t-28.5 -25.5h1q-2 -2 -4 -3t-3 -2h2q-2 -2 -3 -2.5t-2 -1.5q-24 -23 -41 -42.5t-27.5 -41.5t-15.5 -48.5
t-5 -63.5h-48q0 37 4.5 67t16 56.5t30 50.5t46.5 51h-1l1 1l4 2q10 8 24.5 21.5t28 32t23.5 41.5t10 52q0 30 -11.5 53.5t-32 39t-48.5 23.5t-61 8q-44 0 -77 -15t-54.5 -42t-32 -64.5t-8.5 -83.5h-36z" />
    <glyph glyph-name="at" unicode="@" horiz-adv-x="800" 
d="M613 545l-113 -292q-6 -17 -10.5 -33t-4.5 -26q0 -21 26 -21q27 0 56.5 17.5t54.5 48.5t41.5 73t16.5 90q0 55 -20.5 101.5t-57.5 79.5t-87 51.5t-108 18.5q-66 0 -122.5 -24t-98 -65.5t-65 -97t-23.5 -119.5q0 -77 25 -135t67.5 -97t98.5 -59t118 -20q41 0 79.5 11.5
t72.5 31.5t63 47t51 59h55q-27 -44 -64 -80.5t-79 -62t-87.5 -39.5t-90.5 -14q-66 0 -130 21t-114 64.5t-81 111.5t-31 161q0 76 28 141t76.5 112.5t113.5 74t138 26.5q66 0 124.5 -21t102 -59.5t68.5 -94t25 -124.5q0 -58 -20.5 -108.5t-52 -88t-70.5 -59t-75 -21.5
q-24 0 -42.5 10t-26.5 29q-26 -25 -56 -32t-61 -7t-57 11.5t-45 32t-30 48t-11 59.5q0 46 17 96.5t48.5 93t75 70t97.5 27.5q43 0 76 -14.5t53 -44.5l7.5 21.5t7.5 19.5h51zM459 277q6 17 13 33.5t13 33.5q11 26 20 51.5l18 49.5q-6 19 -18 33t-27 22t-31.5 12t-32.5 4
q-41 0 -75.5 -23.5t-59.5 -59.5t-38.5 -78t-13.5 -79q0 -22 7.5 -40.5t21 -32.5t31.5 -22t39 -8q17 0 35 4.5t36 16.5t34 32t28 51zM535 448l-9 3l-1 -3l8 -4z" />
    <glyph glyph-name="A" unicode="A" horiz-adv-x="575" 
d="M27 0h-54l289 714h46l283 -714h-55l-90 226h-328zM284 639l-44.5 -110.5l-44.5 -108.5l-29 -72.5l-30 -73.5h292z" />
    <glyph glyph-name="B" unicode="B" horiz-adv-x="611" 
d="M346 395q31 0 60 8.5t51 25.5t35 42t13 58q0 35 -12.5 60.5t-34 42.5t-50.5 25.5t-62 8.5h-261v-271h261zM346 714q43 0 81 -11.5t66 -34.5t44 -58t16 -81q0 -52 -25 -94t-70 -62q50 -20 83 -63.5t33 -109.5q0 -50 -17.5 -87t-49.5 -62.5t-76 -38t-97 -12.5h-297v714h309
zM343 48q39 0 72 9t58 28t39 47.5t14 66.5q0 41 -15.5 69t-41 45.5t-57.5 25.5t-66 8h-261v-299h258z" />
    <glyph glyph-name="C" unicode="C" horiz-adv-x="685" 
d="M656 285q-9 -66 -33.5 -121.5t-64.5 -95t-94.5 -62t-122.5 -22.5q-71 0 -131 27.5t-103 76t-67 116t-24 147.5q0 65 18.5 132.5t59 122.5t104.5 90t155 35q72 0 125.5 -25.5t89 -64t54 -82.5t19.5 -80h-47q-3 37 -21.5 73.5t-49.5 65.5t-74.5 46.5t-95.5 17.5
q-81 0 -136 -32.5t-89 -82t-49 -107.5t-15 -109q0 -62 18.5 -120t53.5 -102t87 -70.5t118 -26.5q58 0 104.5 20t80.5 56t55 84.5t29 105.5h34z" />
    <glyph glyph-name="D" unicode="D" horiz-adv-x="648" 
d="M273 48q58 0 109.5 18.5t90 57t61 96.5t22.5 137q0 92 -22.5 151.5t-59.5 94.5t-84.5 49t-96.5 14h-201v-618h181zM298 714q54 0 108.5 -16.5t98.5 -57t72 -109.5t28 -174q0 -96 -28.5 -164t-75 -110.5t-107.5 -62.5t-125 -20h-225v714h254z" />
    <glyph glyph-name="E" unicode="E" horiz-adv-x="537" 
d="M531 48v-48h-488v714h484v-48h-435v-271h409v-48h-409v-299h439z" />
    <glyph glyph-name="F" unicode="F" horiz-adv-x="481" 
d="M456 395v-48h-365v-347h-48v714h451v-48h-403v-271h365z" />
    <glyph glyph-name="G" unicode="G" horiz-adv-x="722" 
d="M354 349h314v-349h-48l-2 117q-38 -64 -104.5 -98.5t-154.5 -34.5q-83 0 -146 29.5t-105 80.5t-63.5 118.5t-21.5 144.5q0 78 23 146.5t66.5 119t105.5 79.5t141 29q60 0 111 -18.5t90 -52.5t65 -82t35 -107h-48q-9 48 -31 87t-54.5 66.5t-75 42.5t-92.5 15
q-69 0 -122.5 -26t-90 -70t-56 -103t-19.5 -126t18.5 -126t55 -103.5t91 -70t126.5 -25.5q54 0 101 18.5t82 51.5t55 78.5t20 99.5v21h-266v48z" />
    <glyph glyph-name="H" unicode="H" horiz-adv-x="648" 
d="M92 0h-48v714h48v-319h451v319h48v-714h-48v347h-451v-347z" />
    <glyph glyph-name="I" unicode="I" horiz-adv-x="138" 
d="M93 714v-714h-48v714h48z" />
    <glyph glyph-name="J" unicode="J" horiz-adv-x="463" 
d="M407 714v-521q0 -47 -11 -85t-35 -66t-62.5 -43t-94.5 -15q-53 0 -90.5 15t-61 42t-34.5 63.5t-11 80.5v56h49v-56q0 -153 148 -153q37 0 66 9t48.5 29.5t29.5 54t10 82.5v507h49z" />
    <glyph glyph-name="K" unicode="K" horiz-adv-x="593" 
d="M92 0h-48v714h48v-398l94.5 83l94.5 83l132.5 116.5l132.5 115.5h75l-350 -308l114 -128.5l117 -131.5l66.5 -74l64.5 -72h-64l-335 376l-27.5 -25l-27.5 -24q-22 -18 -43 -37l-44 -39v-251z" />
    <glyph glyph-name="L" unicode="L" horiz-adv-x="481" 
d="M491 0h-448v714h48v-666h400v-48z" />
    <glyph glyph-name="M" unicode="M" horiz-adv-x="780" 
d="M719 714v-714h-49l-2 605l-50.5 -113.5l-49.5 -113.5l-83 -189.5l-83 -188.5h-40l-269 606v-606h-48v714h56l282 -638l84 190.5l84 192.5l56.5 127.5l55.5 127.5h56z" />
    <glyph glyph-name="N" unicode="N" horiz-adv-x="648" 
d="M95 714l448 -631v631h48v-714h-51l-448 631v-631h-48v714h51z" />
    <glyph glyph-name="O" unicode="O" horiz-adv-x="721" 
d="M23 357q0 76 22 144t64 119t103.5 81t141.5 30t141.5 -30t103.5 -81t63.5 -119t21.5 -144t-21.5 -144t-63.5 -119t-103.5 -80.5t-141.5 -29.5t-141.5 29.5t-103.5 80.5t-64 119t-22 144zM71 357q1 -71 20.5 -130.5t56 -102.5t88.5 -67.5t118 -24.5t117.5 24.5t88 67.5
t56 102.5t20.5 130.5q-1 70 -20.5 130t-56 103t-88 67.5t-117.5 24.5t-118 -24.5t-88.5 -67.5t-56 -103t-20.5 -130z" />
    <glyph glyph-name="P" unicode="P" horiz-adv-x="574" 
d="M44 0v714h291q106 0 164.5 -50.5t58.5 -150.5q0 -49 -17.5 -86.5t-48 -63t-73 -38.5t-93.5 -13h-234v-312h-48zM335 360q37 0 69 10t55.5 29.5t37 48t13.5 65.5q0 75 -43 114t-132 39h-243v-306h243z" />
    <glyph glyph-name="Q" unicode="Q" horiz-adv-x="721" 
d="M555 52q-39 -32 -89 -50t-112 -18q-80 0 -141.5 29.5t-103.5 80.5t-64 119t-22 144t22 144t64 119t103.5 81t141.5 30t141.5 -30t103.5 -81t63.5 -119t21.5 -144q0 -80 -23.5 -150.5t-71.5 -122.5q17 -12 35 -23.5t35 -23.5q9 -5 20.5 -13t19.5 -13l-28 -37zM424 200
l126 -87q85 87 86 244q-1 70 -20.5 130t-56 103t-88 67.5t-117.5 24.5t-118 -24.5t-88 -67.5t-55.5 -103t-20.5 -130q1 -71 20.5 -130.5t55.5 -102.5t88 -67.5t118 -24.5q45 0 85.5 13t72.5 36l-52 36l-52 36q-6 3 -11 8z" />
    <glyph glyph-name="R" unicode="R" horiz-adv-x="611" 
d="M44 0v714h294q115 0 168.5 -46t55.5 -144q2 -61 -26 -105.5t-81 -70.5q30 -10 48.5 -27.5t29 -41.5t14 -55t3.5 -68q0 -14 1.5 -35.5t5.5 -44.5t9.5 -43.5t14.5 -32.5h-59q-6 14 -10 34.5t-6.5 42t-3 43.5t-0.5 39q0 39 -5.5 69t-23.5 50.5t-51 31.5t-87 11h-243v-321
h-48zM334 370q35 0 67.5 9t57.5 28t40 48.5t15 70.5q-1 66 -40.5 103t-130.5 37h-251v-296h242z" />
    <glyph glyph-name="S" unicode="S" horiz-adv-x="611" 
d="M501 505q-2 50 -18 84t-44 54.5t-65.5 29.5t-80.5 9q-34 0 -69.5 -6.5t-64.5 -23t-47.5 -44t-18.5 -69.5q0 -36 16 -60.5t43 -40t61.5 -25.5t70.5 -18q4 -1 8 -1.5t8 -1.5q5 -1 10 -1.5t9 -2.5q8 -3 15 -5t11 -3q46 -12 85.5 -24.5t69 -33t46 -53.5t16.5 -87
q0 -53 -22.5 -90.5t-58.5 -61.5t-82 -35t-92 -11q-62 0 -114.5 15t-90.5 48t-58.5 84.5t-19.5 124.5h48q0 -61 17.5 -103.5t48.5 -69.5t74.5 -39t94.5 -12q37 0 74.5 8.5t66.5 26.5t47.5 46.5t18.5 69.5q0 42 -17 68t-44 42t-60.5 25t-67.5 17l-42 10q-2 1 -1 -0.5t-1 -0.5
q-8 4 -12 4q-42 9 -82.5 20.5t-72 32t-51 53.5t-19.5 85q0 55 22.5 92t58 59t80 31.5t88.5 9.5q53 0 98.5 -12.5t79 -41t54.5 -73.5t24 -111h-36z" />
    <glyph glyph-name="T" unicode="T" 
d="M-25 714h541v-48h-247v-666h-48v666h-246v48z" />
    <glyph glyph-name="U" unicode="U" horiz-adv-x="632" 
d="M575 714v-445q0 -146 -67 -215.5t-198 -69.5t-198.5 69.5t-67.5 215.5v445h48v-445q0 -117 53 -177t165 -60t164.5 60t52.5 177v445h48z" />
    <glyph glyph-name="V" unicode="V" horiz-adv-x="538" 
d="M560 714l-271 -714h-43l-278 714h50l250 -635l40.5 106.5l40.5 106.5l80 211.5l80 210.5h51z" />
    <glyph glyph-name="W" unicode="W" horiz-adv-x="870" 
d="M874 714l-208 -714h-49l-192 622l-92.5 -311.5l-93.5 -310.5h-49l-210 714h51l184 -621l93 311.5l93 309.5h51l191 -622l89 311.5l90 310.5h52z" />
    <glyph glyph-name="X" unicode="X" horiz-adv-x="520" 
d="M547 714l-260 -347l65 -88l67 -91l71 -95l69 -93h-61l-243 327l-89.5 -120l-90.5 -122l-33 -42.5l-31 -42.5h-60l275 367l-22 28.5l-22 28.5l-109.5 147l-107.5 143h61l229 -308l117 154l116 154h59z" />
    <glyph glyph-name="Y" unicode="Y" horiz-adv-x="538" 
d="M579 714l-291 -415v-299h-48v300l-74 105l-75 108l-72 102l-69 99h60l253 -366l128.5 183.5l128.5 182.5h59z" />
    <glyph glyph-name="Z" unicode="Z" 
d="M507 0h-534v45l464 621h-438v48h500v-45l-465 -621h473v-48z" />
    <glyph glyph-name="bracketleft" unicode="[" horiz-adv-x="222" 
d="M216 671h-88v-790h88v-47h-135v885h135v-48z" />
    <glyph glyph-name="backslash" unicode="\" horiz-adv-x="333" 
d="M-23 719h49l322 -734h-51z" />
    <glyph glyph-name="bracketright" unicode="]" horiz-adv-x="222" 
d="M0 -119h88v790h-88v48h135v-885h-135v47z" />
    <glyph glyph-name="asciicircum" unicode="^" horiz-adv-x="600" 
d="M492 214l-201 391l-49 -95l-49 -95l-52 -101l-51 -100h-50l235 457h34l234 -457h-51z" />
    <glyph glyph-name="underscore" unicode="_" 
d="M-7 -41h501v-76h-501v76z" />
    <glyph glyph-name="grave" unicode="`" horiz-adv-x="130" 
d="M0 719l143 -165h-52l-158 165h67z" />
    <glyph glyph-name="a" unicode="a" horiz-adv-x="481" 
d="M44 347q1 38 14 70.5t38 56.5t61.5 38t85.5 14q35 0 66.5 -7.5t55 -25.5t38 -47.5t15.5 -73.5v-308q0 -8 6 -12t15 -5t20 -0.5t20 1.5v-48h-42q-26 0 -46.5 13t-20.5 49v9q-26 -35 -72 -58.5t-108 -23.5q-80 0 -128.5 36.5t-48.5 108.5q0 48 16 78.5t42 48t58 24.5t64 9
q6 1 14 1h11q38 2 66.5 5t47.5 9.5t28.5 17.5t9.5 31q0 19 -3.5 40.5t-16.5 39t-38.5 29t-68.5 11.5q-70 0 -108.5 -37t-43.5 -106h-36zM189 36q44 0 77.5 15t56.5 39t35 55.5t12 64.5v60q-26 -13 -63.5 -16.5t-76.5 -5.5q-4 0 -8.5 -0.5t-9.5 -0.5q-10 0 -14 -1
q-26 -2 -51 -6.5t-44 -16.5t-30.5 -33t-11.5 -56q0 -18 6.5 -36t21.5 -31.5t39.5 -22t60.5 -8.5zM386 297l-16 15v-44l14 11.5t12 13.5l-5 6z" />
    <glyph glyph-name="b" unicode="b" horiz-adv-x="537" 
d="M93 430q27 44 73 70t109 26q53 0 94.5 -22t69.5 -59.5t42.5 -86t14.5 -102.5q0 -58 -15.5 -107t-44 -84.5t-69.5 -55.5t-92 -20q-60 0 -106.5 26t-75.5 70v-85h-47v703h47v-273zM93 256q0 -44 12 -84t35.5 -70t57 -48t77.5 -18q43 0 76 18t54.5 48t32.5 70t11 84
q0 40 -10 79.5t-31 71t-54 51.5t-79 20q-83 0 -132.5 -57t-49.5 -165z" />
    <glyph glyph-name="c" unicode="c" 
d="M464 181q-4 -44 -21.5 -79.5t-45.5 -60.5t-65.5 -38.5t-80.5 -13.5q-55 0 -97.5 20.5t-72 56t-44.5 82t-15 98.5q0 55 14.5 106t44 89.5t75 61.5t107.5 23q37 0 70.5 -12.5t60.5 -36.5t45 -59t23 -80h-48q-11 72 -53 106t-98 34q-54 0 -91.5 -21t-60 -54.5t-32.5 -75
t-10 -81.5q0 -41 12 -79t35 -67t57 -46.5t78 -17.5q33 0 62 11t51 31.5t36 50t17 65.5h35z" />
    <glyph glyph-name="d" unicode="d" horiz-adv-x="537" 
d="M470 703v-703h-48l-2 85q-29 -42 -76 -69t-104 -27q-51 0 -92 20t-69.5 55.5t-44 84.5t-15.5 107q0 54 14.5 102.5t42.5 86t69.5 59.5t94.5 22q61 0 107 -26t75 -69v272h48zM422 256q0 108 -49.5 165t-132.5 57q-46 0 -78.5 -20t-53.5 -51.5t-31 -71t-10 -79.5
q0 -44 10.5 -84t32.5 -70t54 -48t76 -18q43 0 77 18t57.5 48t35.5 70t12 84z" />
    <glyph glyph-name="e" unicode="e" 
d="M64 239q3 -43 13.5 -80t31.5 -64.5t53.5 -43t78.5 -15.5q72 0 119 40t58 121h48q-13 -99 -73.5 -153.5t-149.5 -54.5q-60 -1 -103 19.5t-70.5 56.5t-40.5 85.5t-13 106.5q0 64 19 114t50.5 84.5t72.5 52.5t85 18q60 0 104 -24.5t71.5 -64.5t40 -91.5t11.5 -106.5h-406z
M245 478q-35 0 -65.5 -14t-54 -39t-39 -60.5t-20.5 -78.5h356q-2 39 -14.5 74t-35 61t-54.5 41.5t-73 15.5zM450 286h-28v-27z" />
    <glyph glyph-name="f" unicode="f" horiz-adv-x="204" 
d="M-11 514h82v93q0 34 10.5 53.5t27 29t35.5 11.5t37 2q17 0 27 -2q2 0 3.5 -0.5t3.5 -0.5q3 -1 9 -1h12v-51q-24 5 -37 6t-22 1q-37 0 -47.5 -13t-10.5 -42v-86h105v-48h-105v-466h-48v466h-82v48z" />
    <glyph glyph-name="g" unicode="g" horiz-adv-x="519" 
d="M244 -129q82 0 125.5 38t43.5 121v85q-30 -41 -79 -65t-98 -24q-54 0 -95 20t-68 53.5t-40.5 78.5t-13.5 95q0 52 14 98t42 80.5t70 54.5t97 20q54 0 99 -25t72 -64v77h48v-484q0 -107 -56.5 -157.5t-159.5 -50.5q-40 0 -75.5 10t-62.5 32t-44 56.5t-18 83.5h48
q1 -36 13.5 -61t33 -41t47.5 -23.5t57 -7.5zM412 273q0 39 -11 76t-32 65.5t-53 46t-74 17.5q-44 0 -76.5 -16.5t-55 -44.5t-33.5 -65t-11 -79t11 -78t32.5 -63t53 -42.5t72.5 -15.5q43 0 76.5 16t55.5 43t33.5 63t11.5 77z" />
    <glyph glyph-name="h" unicode="h" 
d="M92 703l2 -254q24 37 64 57t96 20q41 0 75.5 -12.5t59.5 -36.5t39 -59.5t14 -81.5v-336h-48v334q0 38 -11 65.5t-30.5 45t-45 25.5t-53.5 8q-40 0 -70 -15.5t-50.5 -41.5t-31 -60t-10.5 -72v-289h-47v703h47z" />
    <glyph glyph-name="i" unicode="i" horiz-adv-x="130" 
d="M40 579v124h47v-124h-47zM40 0v514h47v-514h-47z" />
    <glyph glyph-name="j" unicode="j" horiz-adv-x="130" 
d="M38 579v124h47v-124h-47zM85 -56q0 -38 -9.5 -60t-28.5 -33t-46 -14t-61 -3v47q27 0 46 1.5t30.5 8.5t16.5 21t5 39v563h47v-570z" />
    <glyph glyph-name="k" unicode="k" horiz-adv-x="444" 
d="M93 0h-48v703h48v-451l76 63l77 64l81 68l81 67h73l-243 -201l43 -53.5l44 -56.5l82 -103l79 -100h-62l-223 282q-5 -4 -9 -8t-9 -8l-45 -38l-45 -37v-191z" />
    <glyph glyph-name="l" unicode="l" horiz-adv-x="137" 
d="M92 703v-703h-47v703h47z" />
    <glyph glyph-name="m" unicode="m" horiz-adv-x="778" 
d="M96 514l2 -66q23 35 59.5 56.5t80.5 21.5q50 2 89 -23.5t60 -64.5q23 39 62.5 63.5t89.5 24.5q48 0 80.5 -14t52 -39.5t28 -61t8.5 -77.5v-334h-48v334q0 32 -5.5 58.5t-19.5 45.5t-37.5 29.5t-58.5 10.5q-32 0 -57.5 -12.5t-43 -34t-27 -50t-9.5 -59.5v-322h-48v326
q0 31 -4.5 58.5t-17 48.5t-35.5 33t-59 12q-33 0 -59 -15.5t-44.5 -41.5t-28.5 -60t-10 -72v-289h-47v514h47z" />
    <glyph glyph-name="n" unicode="n" 
d="M92 514l2 -66q24 37 64.5 57.5t95.5 20.5q41 0 75.5 -12.5t59.5 -36.5t39 -59.5t14 -81.5v-336h-48v334q0 38 -11 65.5t-30.5 45t-45 25.5t-53.5 8q-40 0 -70 -15.5t-50.5 -41.5t-31 -60t-10.5 -72v-289h-47v514h47z" />
    <glyph glyph-name="o" unicode="o" horiz-adv-x="519" 
d="M67 257q0 -44 12 -83.5t35.5 -70.5t58 -49t80.5 -18q45 0 79.5 18t58 49t35.5 70.5t12 83.5q0 42 -12 82t-35.5 71t-58 49.5t-79.5 18.5q-46 0 -80.5 -18.5t-58 -49.5t-35.5 -71t-12 -82zM19 257q0 52 15 101t45 86t73.5 59.5t100.5 22.5q56 0 99 -22.5t72.5 -59.5
t45 -86t15.5 -101q0 -53 -15 -101.5t-44.5 -85.5t-73 -59t-100.5 -22q-56 0 -99.5 22t-73 59t-45 85.5t-15.5 101.5z" />
    <glyph glyph-name="p" unicode="p" horiz-adv-x="537" 
d="M46 -166v680h47l2 -84q28 45 74 70.5t106 25.5q51 0 92 -20t69.5 -56t44 -85t15.5 -107q0 -54 -14.5 -103t-42.5 -85.5t-69.5 -58.5t-94.5 -22q-61 0 -107 25.5t-75 68.5v-249h-47zM275 36q46 0 79 20t54 51.5t31 71t10 79.5q0 44 -11 84t-32.5 70t-54.5 48t-76 18
q-44 0 -77.5 -18t-57 -48t-35.5 -70t-12 -84q0 -108 49.5 -165t132.5 -57z" />
    <glyph glyph-name="q" unicode="q" horiz-adv-x="537" 
d="M422 258q0 44 -12 84t-35.5 70t-57.5 48t-77 18q-44 0 -76 -18t-54 -48t-32.5 -70t-10.5 -84q0 -40 10 -79.5t31 -71t53.5 -51.5t78.5 -20q83 0 132.5 57t49.5 165zM470 514v-680h-48l-2 247q-28 -42 -74 -67t-106 -25q-53 0 -94.5 22t-69.5 58.5t-42.5 85.5t-14.5 103
q0 58 15.5 107t44 85t69.5 56t92 20q61 0 107 -26t75 -71v85h48z" />
    <glyph glyph-name="r" unicode="r" horiz-adv-x="259" 
d="M42 0v514h48l2 -69q26 36 72 59.5t118 21.5v-49q-50 3 -86 -12t-59.5 -42t-35 -62t-11.5 -72v-289h-48z" />
    <glyph glyph-name="s" unicode="s" horiz-adv-x="463" 
d="M360 353q0 67 -39.5 96t-102.5 29q-46 0 -72.5 -12t-39.5 -27t-16.5 -29.5t-3.5 -20.5q0 -31 13 -46.5t33 -24.5q17 -8 38 -13.5l44 -11.5q9 -2 19.5 -5t20.5 -5q29 -8 59 -17.5t54 -25.5t39 -40.5t15 -61.5q0 -41 -17 -69.5t-44 -46t-61 -25.5t-68 -8
q-105 0 -157.5 49.5t-52.5 156.5h47q0 -83 42 -121t121 -38q24 0 49 5.5t46 17.5t34 31t13 46q0 25 -12 41.5t-32 28t-45 19t-51 13.5l-15 3q-35 9 -62.5 17.5t-49.5 17.5q-67 30 -67 113q0 22 9.5 46t30.5 44.5t55 33.5t84 13q88 0 139 -43.5t51 -141.5h-36z" />
    <glyph glyph-name="t" unicode="t" horiz-adv-x="241" 
d="M122 109q0 -22 4.5 -34.5t11.5 -18.5t16 -7t18 -1q12 0 24 1t32 9v-55q-2 0 -7 -0.5t-7 -0.5h-7q-6 -1 -15.5 -1.5t-23.5 -0.5q-40 0 -67 22.5t-27 82.5v361h-89v48h89v153h48v-153h109v-48h-109v-357z" />
    <glyph glyph-name="u" unicode="u" 
d="M394 0l-2 68q-26 -36 -66 -57.5t-94 -21.5q-41 0 -75.5 12t-59.5 36t-38.5 59t-13.5 82v336h47v-334q0 -38 11 -65.5t30.5 -45t44.5 -25.5t54 -8q40 0 70 15.5t50.5 41.5t31 60t10.5 72v289h48v-514h-48z" />
    <glyph glyph-name="v" unicode="v" horiz-adv-x="407" 
d="M423 514l-195 -514h-44l-211 514h54l180 -440l82.5 220l81.5 220h52z" />
    <glyph glyph-name="w" unicode="w" horiz-adv-x="685" 
d="M684 514l-164 -514h-46l-141 433l-65.5 -200l-66.5 -200v1q-2 -7 -5 -16.5t-5 -17.5h-49l-159 514h50l134 -433l17 53l17 53l52.5 165l52.5 162h52l140 -432l14.5 49t15.5 49l53 169l53 165h50z" />
    <glyph glyph-name="x" unicode="x" horiz-adv-x="407" 
d="M416 514l-189 -248l32.5 -42.5l33.5 -43.5l71.5 -92l68.5 -88h-59l-177 229q-13 -16 -24.5 -32.5t-24.5 -32.5l-63.5 -83l-62.5 -81h-58l204 266l-57 74l-57 76l-37.5 50t-36.5 48h62l155 -211l32.5 43l32.5 42l96 126h58z" />
    <glyph glyph-name="y" unicode="y" horiz-adv-x="407" 
d="M423 514l-232 -603q-11 -28 -26.5 -43.5t-35.5 -23t-44 -9t-51 -1.5v47q26 0 44.5 1.5t31.5 7t22 16t17 29.5l32 84l-35 84l-36 85l-69.5 165l-67.5 161h52l183 -433l60 159.5l60 158.5l21.5 58l21.5 57h52z" />
    <glyph glyph-name="z" unicode="z" horiz-adv-x="407" 
d="M399 0h-403v43l325 423h-299v48h362v-43l-324 -423h339v-48z" />
    <glyph glyph-name="braceleft" unicode="{" horiz-adv-x="333" 
d="M222 -166q-48 0 -65.5 28.5t-17.5 90.5v153q0 54 -13.5 91t-54.5 65v38q16 3 28.5 16.5t21.5 33.5t13.5 45t4.5 51v155q0 62 17.5 90t65.5 28h62v-48h-60q-20 0 -29 -18t-9 -68v-155q0 -19 -3.5 -40.5t-10 -42.5t-17 -39.5t-24.5 -30.5q26 -23 40.5 -64t14.5 -91v-152
q0 -27 2.5 -44.5t7 -27.5t12 -13.5t16.5 -3.5h60v-47h-62v0z" />
    <glyph glyph-name="bar" unicode="|" horiz-adv-x="222" 
d="M84 771h48v-972h-48v972z" />
    <glyph glyph-name="braceright" unicode="}" horiz-adv-x="333" 
d="M101 719q49 0 66.5 -29t17.5 -91v-153q0 -54 13 -92t55 -64v-39q-16 -3 -28.5 -16t-21.5 -33t-13.5 -45t-4.5 -51v-155q0 -62 -17.5 -89.5t-66.5 -27.5h-61v47h59q21 0 29.5 18.5t8.5 68.5v154q0 19 3.5 40.5t10 42.5t17 39t25.5 31q-27 22 -41.5 63.5t-14.5 91.5v153
q0 54 -9 71t-29 17h-59v48h61v0z" />
    <glyph glyph-name="asciitilde" unicode="~" horiz-adv-x="600" 
d="M515 287l-22.5 -33.5t-25 -29t-30.5 -20t-38 -7.5q-19 0 -36.5 6t-34.5 14q-2 1 -3.5 1.5t-3.5 1.5q-2 0 -5.5 2t-5.5 3t-4 1.5t-4 2.5q-2 1 -3.5 1t-3.5 1q3 0 -3.5 2.5t-8.5 4.5q-1 0 -1 -0.5t-1 -0.5h2h-2v1q-20 9 -41.5 17t-47.5 8t-47 -20.5t-38 -52.5l-46 16
q22 43 55 72.5t75 31.5q27 2 58 -9t60 -25v1q2 -1 5.5 -2t11.5 -6v1q21 -10 40.5 -17.5t33.5 -7.5q20 0 33.5 14.5t27.5 32.5q2 2 3.5 4.5t3.5 5.5l5 7.5t4 6.5l32 -11zM295 231h-1h1z" />
    <glyph glyph-name="Adieresis" unicode="&#xc4;" horiz-adv-x="575" 
d="M332 843h49v-106h-49v106zM183 843h49v-106h-49v106zM27 0h-54l289 714h46l283 -714h-55l-90 226h-328zM284 639l-44.5 -110.5l-44.5 -108.5l-29 -72.5l-30 -73.5h292z" />
    <glyph glyph-name="Aring" unicode="&#xc5;" horiz-adv-x="575" 
d="M332 805q0 20 -14.5 35.5t-35.5 15.5t-35.5 -15.5t-14.5 -35.5q0 -21 14.5 -36t35.5 -15t35.5 15t14.5 36zM381 805q0 -20 -8 -38t-21.5 -31.5t-31.5 -21.5t-38 -8t-38 8t-31.5 21.5t-21.5 31.5t-8 38t8 38t21.5 31.5t31.5 21.5t38 8t38 -8t31.5 -21.5t21.5 -31.5t8 -38z
M27 0h-54l289 714h46l283 -714h-55l-90 226h-328zM284 639l-44.5 -110.5l-44.5 -108.5l-29 -72.5l-30 -73.5h292z" />
    <glyph glyph-name="Ccedilla" unicode="&#xc7;" horiz-adv-x="685" 
d="M593 490q-3 35 -21 69.5t-49.5 61.5t-74.5 44t-95 17q-81 0 -136 -32.5t-89 -82t-49 -107.5t-15 -109q0 -62 18.5 -120t53.5 -102t87 -70.5t118 -26.5q58 0 104.5 20t80.5 56t55 84.5t29 105.5h49q-10 -68 -34.5 -124.5t-63.5 -98t-91 -65t-117 -26.5q-2 0 -2 -2
q34 0 59.5 -16.5t25.5 -55.5q0 -26 -9 -42t-24 -26t-34.5 -13.5t-40.5 -3.5q-24 0 -46 6t-40 12l-14 5l23 44q2 -1 5 -1.5t5 -1.5l33.5 -10t33.5 -5q21 0 40.5 8t19.5 28q0 13 -14 18.5t-25 5.5q-26 0 -52 -16l-35 24l35 45q-63 8 -115 38t-88.5 77.5t-57 110.5t-20.5 138
q0 65 18.5 132.5t59 122.5t104.5 90t155 35q72 0 125.5 -25.5t89 -64t54 -82.5t19.5 -80h-35z" />
    <glyph glyph-name="Eacute" unicode="&#xc9;" horiz-adv-x="537" 
d="M233 734h-54l153 167h69zM531 48v-48h-488v714h484v-48h-435v-271h409v-48h-409v-299h439z" />
    <glyph glyph-name="Ntilde" unicode="&#xd1;" horiz-adv-x="648" 
d="M176 759q0 17 6.5 33.5t17.5 30t25.5 22t30.5 8.5q21 0 39.5 -10.5t35.5 -21.5q13 -9 24.5 -16t22.5 -7q16 0 24 16t8 36h49q0 -20 -5 -38t-15 -31.5t-25.5 -22t-35.5 -8.5q-23 0 -40.5 9.5t-33.5 22.5h1q-2 1 -4.5 2.5t-4.5 2.5q-10 7 -19.5 12.5t-20.5 5.5
q-7 0 -12.5 -5.5t-10 -14t-7 -18t-2.5 -18.5h-35zM95 714l448 -631v631h48v-714h-51l-448 631v-631h-48v714h51z" />
    <glyph glyph-name="Odieresis" unicode="&#xd6;" horiz-adv-x="721" 
d="M405 843h47v-106h-47v106zM255 843h48v-106h-48v106zM23 357q0 76 22 144t64 119t103.5 81t141.5 30t141.5 -30t103.5 -81t63.5 -119t21.5 -144t-21.5 -144t-63.5 -119t-103.5 -80.5t-141.5 -29.5t-141.5 29.5t-103.5 80.5t-64 119t-22 144zM71 357q1 -71 20.5 -130.5
t56 -102.5t88.5 -67.5t118 -24.5t117.5 24.5t88 67.5t56 102.5t20.5 130.5q-1 70 -20.5 130t-56 103t-88 67.5t-117.5 24.5t-118 -24.5t-88.5 -67.5t-56 -103t-20.5 -130z" />
    <glyph glyph-name="Udieresis" unicode="&#xdc;" horiz-adv-x="632" 
d="M360 843h48v-106h-48v106zM210 843h49v-106h-49v106zM575 714v-445q0 -146 -67 -215.5t-198 -69.5t-198.5 69.5t-67.5 215.5v445h48v-445q0 -117 53 -177t165 -60t164.5 60t52.5 177v445h48z" />
    <glyph glyph-name="aacute" unicode="&#xe1;" horiz-adv-x="481" 
d="M203 534h-53l152 164h68zM44 347q1 38 14 70.5t38 56.5t61.5 38t85.5 14q35 0 66.5 -7.5t55 -25.5t38 -47.5t15.5 -73.5v-308q0 -8 6 -12t15 -5t20 -0.5t20 1.5v-48h-42q-26 0 -46.5 13t-20.5 49v9q-26 -35 -72 -58.5t-108 -23.5q-80 0 -128.5 36.5t-48.5 108.5
q0 48 16 78.5t42 48t58 24.5t64 9q6 1 14 1h11q38 2 66.5 5t47.5 9.5t28.5 17.5t9.5 31q0 19 -3.5 40.5t-16.5 39t-38.5 29t-68.5 11.5q-70 0 -108.5 -37t-43.5 -106h-36zM189 36q44 0 77.5 15t56.5 39t35 55.5t12 64.5v60q-26 -13 -63.5 -16.5t-76.5 -5.5q-4 0 -8.5 -0.5
t-9.5 -0.5q-10 0 -14 -1q-26 -2 -51 -6.5t-44 -16.5t-30.5 -33t-11.5 -56q0 -18 6.5 -36t21.5 -31.5t39.5 -22t60.5 -8.5zM386 297l-16 15v-44l14 11.5t12 13.5l-5 6z" />
    <glyph glyph-name="agrave" unicode="&#xe0;" horiz-adv-x="481" 
d="M171 698l143 -164h-52l-160 164h69zM44 347q1 38 14 70.5t38 56.5t61.5 38t85.5 14q35 0 66.5 -7.5t55 -25.5t38 -47.5t15.5 -73.5v-308q0 -8 6 -12t15 -5t20 -0.5t20 1.5v-48h-42q-26 0 -46.5 13t-20.5 49v9q-26 -35 -72 -58.5t-108 -23.5q-80 0 -128.5 36.5
t-48.5 108.5q0 48 16 78.5t42 48t58 24.5t64 9q6 1 14 1h11q38 2 66.5 5t47.5 9.5t28.5 17.5t9.5 31q0 19 -3.5 40.5t-16.5 39t-38.5 29t-68.5 11.5q-70 0 -108.5 -37t-43.5 -106h-36zM189 36q44 0 77.5 15t56.5 39t35 55.5t12 64.5v60q-26 -13 -63.5 -16.5t-76.5 -5.5
q-4 0 -8.5 -0.5t-9.5 -0.5q-10 0 -14 -1q-26 -2 -51 -6.5t-44 -16.5t-30.5 -33t-11.5 -56q0 -18 6.5 -36t21.5 -31.5t39.5 -22t60.5 -8.5zM386 297l-16 15v-44l14 11.5t12 13.5l-5 6z" />
    <glyph glyph-name="acircumflex" unicode="&#xe2;" horiz-adv-x="481" 
d="M233 645l-21.5 -26l-21.5 -27l-22.5 -27l-21.5 -26h-55l129 159h28l130 -159h-55zM44 347q1 38 14 70.5t38 56.5t61.5 38t85.5 14q35 0 66.5 -7.5t55 -25.5t38 -47.5t15.5 -73.5v-308q0 -8 6 -12t15 -5t20 -0.5t20 1.5v-48h-42q-26 0 -46.5 13t-20.5 49v9
q-26 -35 -72 -58.5t-108 -23.5q-80 0 -128.5 36.5t-48.5 108.5q0 48 16 78.5t42 48t58 24.5t64 9q6 1 14 1h11q38 2 66.5 5t47.5 9.5t28.5 17.5t9.5 31q0 19 -3.5 40.5t-16.5 39t-38.5 29t-68.5 11.5q-70 0 -108.5 -37t-43.5 -106h-36zM189 36q44 0 77.5 15t56.5 39t35 55.5
t12 64.5v60q-26 -13 -63.5 -16.5t-76.5 -5.5q-4 0 -8.5 -0.5t-9.5 -0.5q-10 0 -14 -1q-26 -2 -51 -6.5t-44 -16.5t-30.5 -33t-11.5 -56q0 -18 6.5 -36t21.5 -31.5t39.5 -22t60.5 -8.5zM386 297l-16 15v-44l14 11.5t12 13.5l-5 6z" />
    <glyph glyph-name="adieresis" unicode="&#xe4;" horiz-adv-x="481" 
d="M285 642h47v-105h-47v105zM137 642h48v-105h-48v105zM44 347q1 38 14 70.5t38 56.5t61.5 38t85.5 14q35 0 66.5 -7.5t55 -25.5t38 -47.5t15.5 -73.5v-308q0 -8 6 -12t15 -5t20 -0.5t20 1.5v-48h-42q-26 0 -46.5 13t-20.5 49v9q-26 -35 -72 -58.5t-108 -23.5
q-80 0 -128.5 36.5t-48.5 108.5q0 48 16 78.5t42 48t58 24.5t64 9q6 1 14 1h11q38 2 66.5 5t47.5 9.5t28.5 17.5t9.5 31q0 19 -3.5 40.5t-16.5 39t-38.5 29t-68.5 11.5q-70 0 -108.5 -37t-43.5 -106h-36zM189 36q44 0 77.5 15t56.5 39t35 55.5t12 64.5v60
q-26 -13 -63.5 -16.5t-76.5 -5.5q-4 0 -8.5 -0.5t-9.5 -0.5q-10 0 -14 -1q-26 -2 -51 -6.5t-44 -16.5t-30.5 -33t-11.5 -56q0 -18 6.5 -36t21.5 -31.5t39.5 -22t60.5 -8.5zM386 297l-16 15v-44l14 11.5t12 13.5l-5 6z" />
    <glyph glyph-name="atilde" unicode="&#xe3;" horiz-adv-x="481" 
d="M96 559q0 16 6.5 32.5t17 29.5t25 21.5t29.5 8.5q20 0 38.5 -10.5t35.5 -21.5q13 -9 24.5 -16t21.5 -7q15 0 23.5 16t8.5 36h47q0 -19 -5 -37t-14.5 -32t-24.5 -22.5t-35 -8.5t-37.5 10t-34.5 22q-1 1 -1 0.5t-1 0.5h1q-12 9 -24 15.5t-23 6.5q-14 0 -22 -19t-8 -37h-37z
M44 347q1 38 14 70.5t38 56.5t61.5 38t85.5 14q35 0 66.5 -7.5t55 -25.5t38 -47.5t15.5 -73.5v-308q0 -8 6 -12t15 -5t20 -0.5t20 1.5v-48h-42q-26 0 -46.5 13t-20.5 49v9q-26 -35 -72 -58.5t-108 -23.5q-80 0 -128.5 36.5t-48.5 108.5q0 48 16 78.5t42 48t58 24.5t64 9
q6 1 14 1h11q38 2 66.5 5t47.5 9.5t28.5 17.5t9.5 31q0 19 -3.5 40.5t-16.5 39t-38.5 29t-68.5 11.5q-70 0 -108.5 -37t-43.5 -106h-36zM189 36q44 0 77.5 15t56.5 39t35 55.5t12 64.5v60q-26 -13 -63.5 -16.5t-76.5 -5.5q-4 0 -8.5 -0.5t-9.5 -0.5q-10 0 -14 -1
q-26 -2 -51 -6.5t-44 -16.5t-30.5 -33t-11.5 -56q0 -18 6.5 -36t21.5 -31.5t39.5 -22t60.5 -8.5zM386 297l-16 15v-44l14 11.5t12 13.5l-5 6z" />
    <glyph glyph-name="aring" unicode="&#xe5;" horiz-adv-x="481" 
d="M285 650q0 21 -15 35.5t-35 14.5q-21 0 -35.5 -14.5t-14.5 -35.5q0 -20 14.5 -34.5t35.5 -14.5q20 0 35 14.5t15 34.5zM332 650q0 -20 -7.5 -37.5t-21 -31t-31 -21t-37.5 -7.5t-37.5 7.5t-31 21t-21.5 31t-8 37.5t8 37.5t21.5 31t31 21.5t37.5 8t37.5 -8t31 -21.5t21 -31
t7.5 -37.5zM44 347q1 38 14 70.5t38 56.5t61.5 38t85.5 14q35 0 66.5 -7.5t55 -25.5t38 -47.5t15.5 -73.5v-308q0 -8 6 -12t15 -5t20 -0.5t20 1.5v-48h-42q-26 0 -46.5 13t-20.5 49v9q-26 -35 -72 -58.5t-108 -23.5q-80 0 -128.5 36.5t-48.5 108.5q0 48 16 78.5t42 48
t58 24.5t64 9q6 1 14 1h11q38 2 66.5 5t47.5 9.5t28.5 17.5t9.5 31q0 19 -3.5 40.5t-16.5 39t-38.5 29t-68.5 11.5q-70 0 -108.5 -37t-43.5 -106h-36zM189 36q44 0 77.5 15t56.5 39t35 55.5t12 64.5v60q-26 -13 -63.5 -16.5t-76.5 -5.5q-4 0 -8.5 -0.5t-9.5 -0.5
q-10 0 -14 -1q-26 -2 -51 -6.5t-44 -16.5t-30.5 -33t-11.5 -56q0 -18 6.5 -36t21.5 -31.5t39.5 -22t60.5 -8.5zM386 297l-16 15v-44l14 11.5t12 13.5l-5 6z" />
    <glyph glyph-name="ccedilla" unicode="&#xe7;" 
d="M464 181q-4 -44 -20 -78.5t-42 -58.5t-61 -38t-76 -16q-2 -2 -3.5 -4t-3.5 -4q33 0 59 -15.5t26 -54.5q0 -26 -9 -42t-23.5 -25.5t-34 -13t-40.5 -3.5q-27 0 -53 7.5t-45 15.5l22 43q20 -8 39 -13.5t37 -5.5q20 0 39.5 8t19.5 29q0 12 -14 17.5t-24 5.5q-26 0 -51 -15
l-35 22l39 52q-46 6 -81 28.5t-59 56t-36 76.5t-12 91q0 55 14.5 106t44 89.5t75 61.5t107.5 23q37 0 70.5 -12.5t60.5 -36.5t45 -59t23 -80h-48q-11 72 -53 106t-98 34q-54 0 -91.5 -21t-60 -54.5t-32.5 -75t-10 -81.5q0 -41 12 -79t35 -67t57 -46.5t78 -17.5q33 0 62 11
t51 31.5t36 50t17 65.5h35z" />
    <glyph glyph-name="eacute" unicode="&#xe9;" 
d="M212 534h-54l152 164h68zM64 239q3 -43 13.5 -80t31.5 -64.5t53.5 -43t78.5 -15.5q72 0 119 40t58 121h48q-13 -99 -73.5 -153.5t-149.5 -54.5q-60 -1 -103 19.5t-70.5 56.5t-40.5 85.5t-13 106.5q0 64 19 114t50.5 84.5t72.5 52.5t85 18q60 0 104 -24.5t71.5 -64.5
t40 -91.5t11.5 -106.5h-406zM245 478q-35 0 -65.5 -14t-54 -39t-39 -60.5t-20.5 -78.5h356q-2 39 -14.5 74t-35 61t-54.5 41.5t-73 15.5zM450 286h-28v-27z" />
    <glyph glyph-name="egrave" unicode="&#xe8;" 
d="M180 698l143 -164h-52l-159 164h68zM64 239q3 -43 13.5 -80t31.5 -64.5t53.5 -43t78.5 -15.5q72 0 119 40t58 121h48q-13 -99 -73.5 -153.5t-149.5 -54.5q-60 -1 -103 19.5t-70.5 56.5t-40.5 85.5t-13 106.5q0 64 19 114t50.5 84.5t72.5 52.5t85 18q60 0 104 -24.5
t71.5 -64.5t40 -91.5t11.5 -106.5h-406zM245 478q-35 0 -65.5 -14t-54 -39t-39 -60.5t-20.5 -78.5h356q-2 39 -14.5 74t-35 61t-54.5 41.5t-73 15.5zM450 286h-28v-27z" />
    <glyph glyph-name="ecircumflex" unicode="&#xea;" 
d="M241 644l-13.5 -15.5l-14.5 -17.5l-29.5 -36.5l-29.5 -35.5h-55l130 159h27l131 -159h-55zM64 239q3 -43 13.5 -80t31.5 -64.5t53.5 -43t78.5 -15.5q72 0 119 40t58 121h48q-13 -99 -73.5 -153.5t-149.5 -54.5q-60 -1 -103 19.5t-70.5 56.5t-40.5 85.5t-13 106.5
q0 64 19 114t50.5 84.5t72.5 52.5t85 18q60 0 104 -24.5t71.5 -64.5t40 -91.5t11.5 -106.5h-406zM245 478q-35 0 -65.5 -14t-54 -39t-39 -60.5t-20.5 -78.5h356q-2 39 -14.5 74t-35 61t-54.5 41.5t-73 15.5zM450 286h-28v-27z" />
    <glyph glyph-name="edieresis" unicode="&#xeb;" 
d="M293 642h48v-105h-48v105zM146 642h47v-105h-47v105zM64 239q3 -43 13.5 -80t31.5 -64.5t53.5 -43t78.5 -15.5q72 0 119 40t58 121h48q-13 -99 -73.5 -153.5t-149.5 -54.5q-60 -1 -103 19.5t-70.5 56.5t-40.5 85.5t-13 106.5q0 64 19 114t50.5 84.5t72.5 52.5t85 18
q60 0 104 -24.5t71.5 -64.5t40 -91.5t11.5 -106.5h-406zM245 478q-35 0 -65.5 -14t-54 -39t-39 -60.5t-20.5 -78.5h356q-2 39 -14.5 74t-35 61t-54.5 41.5t-73 15.5zM450 286h-28v-27z" />
    <glyph glyph-name="iacute" unicode="&#xed;" horiz-adv-x="130" 
d="M33 534h-54l152 164h68zM40 514h48v-514h-48v514z" />
    <glyph glyph-name="igrave" unicode="&#xec;" horiz-adv-x="130" 
d="M0 698l143 -164h-52l-158 164h67zM39 514h48v-514h-48v514z" />
    <glyph glyph-name="icircumflex" unicode="&#xee;" horiz-adv-x="130" 
d="M61 645l-43 -53.5l-43 -52.5h-55l129 159h27l131 -159h-55zM40 514h47v-514h-47v514z" />
    <glyph glyph-name="idieresis" unicode="&#xef;" horiz-adv-x="130" 
d="M113 642h47v-105h-47v105zM-34 642h48v-105h-48v105zM40 514h47v-514h-47v514z" />
    <glyph glyph-name="ntilde" unicode="&#xf1;" 
d="M104 559q0 16 6.5 32.5t17.5 29.5t25 21.5t30 8.5q20 0 38.5 -10.5t34.5 -21.5q13 -10 25 -16.5t21 -6.5q16 0 24 16t8 36h48q0 -19 -5 -37t-15 -32t-25 -22.5t-35 -8.5t-37.5 10t-33.5 22q-1 1 -1 0.5t-1 0.5h1q-13 9 -24.5 15.5t-22.5 6.5q-14 0 -23 -19t-9 -37h-35z
M92 514l2 -66q24 37 64.5 57.5t95.5 20.5q41 0 75.5 -12.5t59.5 -36.5t39 -59.5t14 -81.5v-336h-48v334q0 38 -11 65.5t-30.5 45t-45 25.5t-53.5 8q-40 0 -70 -15.5t-50.5 -41.5t-31 -60t-10.5 -72v-289h-47v514h47z" />
    <glyph glyph-name="oacute" unicode="&#xf3;" horiz-adv-x="519" 
d="M221 534h-53l151 164h69zM67 257q0 -44 12 -83.5t35.5 -70.5t58 -49t80.5 -18q45 0 79.5 18t58 49t35.5 70.5t12 83.5q0 42 -12 82t-35.5 71t-58 49.5t-79.5 18.5q-46 0 -80.5 -18.5t-58 -49.5t-35.5 -71t-12 -82zM19 257q0 52 15 101t45 86t73.5 59.5t100.5 22.5
q56 0 99 -22.5t72.5 -59.5t45 -86t15.5 -101q0 -53 -15 -101.5t-44.5 -85.5t-73 -59t-100.5 -22q-56 0 -99.5 22t-73 59t-45 85.5t-15.5 101.5z" />
    <glyph glyph-name="ograve" unicode="&#xf2;" horiz-adv-x="519" 
d="M190 698l142 -164h-51l-159 164h68zM67 257q0 -44 12 -83.5t35.5 -70.5t58 -49t80.5 -18q45 0 79.5 18t58 49t35.5 70.5t12 83.5q0 42 -12 82t-35.5 71t-58 49.5t-79.5 18.5q-46 0 -80.5 -18.5t-58 -49.5t-35.5 -71t-12 -82zM19 257q0 52 15 101t45 86t73.5 59.5
t100.5 22.5q56 0 99 -22.5t72.5 -59.5t45 -86t15.5 -101q0 -53 -15 -101.5t-44.5 -85.5t-73 -59t-100.5 -22q-56 0 -99.5 22t-73 59t-45 85.5t-15.5 101.5z" />
    <glyph glyph-name="ocircumflex" unicode="&#xf4;" horiz-adv-x="519" 
d="M251 645q-11 -12 -21.5 -25l-21.5 -27q-11 -13 -22 -27.5t-22 -26.5h-56l131 159h27l131 -159h-55zM67 257q0 -44 12 -83.5t35.5 -70.5t58 -49t80.5 -18q45 0 79.5 18t58 49t35.5 70.5t12 83.5q0 42 -12 82t-35.5 71t-58 49.5t-79.5 18.5q-46 0 -80.5 -18.5t-58 -49.5
t-35.5 -71t-12 -82zM19 257q0 52 15 101t45 86t73.5 59.5t100.5 22.5q56 0 99 -22.5t72.5 -59.5t45 -86t15.5 -101q0 -53 -15 -101.5t-44.5 -85.5t-73 -59t-100.5 -22q-56 0 -99.5 22t-73 59t-45 85.5t-15.5 101.5z" />
    <glyph glyph-name="odieresis" unicode="&#xf6;" horiz-adv-x="519" 
d="M303 642h47v-105h-47v105zM155 642h48v-105h-48v105zM67 257q0 -44 12 -83.5t35.5 -70.5t58 -49t80.5 -18q45 0 79.5 18t58 49t35.5 70.5t12 83.5q0 42 -12 82t-35.5 71t-58 49.5t-79.5 18.5q-46 0 -80.5 -18.5t-58 -49.5t-35.5 -71t-12 -82zM19 257q0 52 15 101t45 86
t73.5 59.5t100.5 22.5q56 0 99 -22.5t72.5 -59.5t45 -86t15.5 -101q0 -53 -15 -101.5t-44.5 -85.5t-73 -59t-100.5 -22q-56 0 -99.5 22t-73 59t-45 85.5t-15.5 101.5z" />
    <glyph glyph-name="otilde" unicode="&#xf5;" horiz-adv-x="519" 
d="M113 559q0 16 6.5 32.5t17.5 29.5t25.5 21.5t30.5 8.5q20 0 38.5 -10.5t34.5 -21.5q13 -10 24.5 -16.5t21.5 -6.5q16 0 24 16t8 36h48q0 -19 -5 -37t-15 -32t-25 -22.5t-35 -8.5t-37.5 10t-33.5 22q-1 1 -1 0.5t-1 0.5h1q-13 9 -24.5 15.5t-22.5 6.5q-14 0 -23 -19
t-9 -37h-36zM67 257q0 -44 12 -83.5t35.5 -70.5t58 -49t80.5 -18q45 0 79.5 18t58 49t35.5 70.5t12 83.5q0 42 -12 82t-35.5 71t-58 49.5t-79.5 18.5q-46 0 -80.5 -18.5t-58 -49.5t-35.5 -71t-12 -82zM19 257q0 52 15 101t45 86t73.5 59.5t100.5 22.5q56 0 99 -22.5
t72.5 -59.5t45 -86t15.5 -101q0 -53 -15 -101.5t-44.5 -85.5t-73 -59t-100.5 -22q-56 0 -99.5 22t-73 59t-45 85.5t-15.5 101.5z" />
    <glyph glyph-name="uacute" unicode="&#xfa;" 
d="M212 534h-54l152 164h68zM394 0l-2 68q-26 -36 -66 -57.5t-94 -21.5q-41 0 -75.5 12t-59.5 36t-38.5 59t-13.5 82v336h47v-334q0 -38 11 -65.5t30.5 -45t44.5 -25.5t54 -8q40 0 70 15.5t50.5 41.5t31 60t10.5 72v289h48v-514h-48z" />
    <glyph glyph-name="ugrave" unicode="&#xf9;" 
d="M180 698l143 -164h-52l-159 164h68zM394 0l-2 68q-26 -36 -66 -57.5t-94 -21.5q-41 0 -75.5 12t-59.5 36t-38.5 59t-13.5 82v336h47v-334q0 -38 11 -65.5t30.5 -45t44.5 -25.5t54 -8q40 0 70 15.5t50.5 41.5t31 60t10.5 72v289h48v-514h-48z" />
    <glyph glyph-name="ucircumflex" unicode="&#xfb;" 
d="M241 644l-13.5 -15.5l-14.5 -17.5l-29.5 -36.5l-29.5 -35.5h-55l130 159h27l131 -159h-55zM394 0l-2 68q-26 -36 -66 -57.5t-94 -21.5q-41 0 -75.5 12t-59.5 36t-38.5 59t-13.5 82v336h47v-334q0 -38 11 -65.5t30.5 -45t44.5 -25.5t54 -8q40 0 70 15.5t50.5 41.5t31 60
t10.5 72v289h48v-514h-48z" />
    <glyph glyph-name="udieresis" unicode="&#xfc;" 
d="M293 642h48v-105h-48v105zM146 642h47v-105h-47v105zM394 0l-2 68q-26 -36 -66 -57.5t-94 -21.5q-41 0 -75.5 12t-59.5 36t-38.5 59t-13.5 82v336h47v-334q0 -38 11 -65.5t30.5 -45t44.5 -25.5t54 -8q40 0 70 15.5t50.5 41.5t31 60t10.5 72v289h48v-514h-48z" />
    <glyph glyph-name="dagger" unicode="&#x2020;" horiz-adv-x="556" 
d="M294 474h196v-48h-196v-557h-47v557h-197v48h197v229h47v-229z" />
    <glyph glyph-name="degree" unicode="&#xb0;" horiz-adv-x="400" 
d="M344 533q0 -32 -11.5 -59.5t-31.5 -48t-47.5 -32t-59.5 -11.5t-59 11t-47 31.5t-31.5 48t-11.5 60.5q0 30 11.5 57t31.5 47.5t47 32.5t59 12q31 0 58.5 -12t48 -32.5t32 -47.5t11.5 -57zM296 533q0 21 -7.5 39.5t-21 32.5t-32.5 22t-41 8q-20 0 -38.5 -8.5t-32.5 -22.5
t-22.5 -32.5t-8.5 -38.5q0 -22 8.5 -41t22.5 -33t32.5 -22t38.5 -8q21 0 40 8t32.5 22t21.5 33t8 41z" />
    <glyph glyph-name="cent" unicode="&#xa2;" horiz-adv-x="556" 
d="M298 36q60 3 99.5 47t47.5 111h48q-12 -92 -66 -144t-129 -60v-104h-48v104q-52 4 -90 27.5t-62.5 60.5t-36.5 83.5t-12 96.5q0 48 12 94.5t37 83.5t63 61t89 27v83h48v-82q74 -6 126.5 -53.5t63.5 -133.5h-47q-12 66 -49 100t-94 39v-441zM97 258q0 -39 9 -76.5t28 -68
t48 -50.5t68 -25v437q-39 -5 -68 -25t-47.5 -50t-28 -67t-9.5 -75zM250 504v-30q7 2 13 2.5t14 0.5z" />
    <glyph glyph-name="sterling" unicode="&#xa3;" horiz-adv-x="556" 
d="M302 326h-133q11 -27 15.5 -57t4.5 -57q0 -39 -11.5 -73t-33.5 -64q8 2 17.5 2.5t18.5 0.5q23 0 46 -6t44 -14l8 -3l44 -16.5t42 -7.5q41 0 74 24.5t71 60.5l32 -34q-24 -28 -46 -46.5t-43.5 -30t-43 -16t-44.5 -4.5q-25 0 -50 7t-49 16q-3 0 -7 3l1 -1q-3 1 -8 2.5
t-8 2.5l-32.5 11t-30.5 5q-32 0 -61 -14t-59 -37l-37 38q50 42 84.5 91.5t34.5 102.5q0 64 -25 114h-77v48h53q-1 1 -1 1.5t-1 1.5q-9 16 -18.5 35t-17.5 39.5t-13.5 40t-5.5 37.5q0 49 19 84.5t51 59t73 35t85 11.5q54 0 97 -15t73 -43.5t46.5 -69.5t16.5 -92v-8.5
t-1 -11.5q-1 -5 -1.5 -11t-0.5 -15h-47q4 52 -7.5 93t-36 68.5t-60 42t-79.5 14.5q-34 0 -66.5 -8t-57.5 -25.5t-40.5 -44.5t-15.5 -64q0 -31 16 -65t33 -65q1 -2 2.5 -4.5t2.5 -4.5q2 -3 4.5 -8t4.5 -8h155v-48z" />
    <glyph glyph-name="section" unicode="&#xa7;" horiz-adv-x="556" 
d="M446 208q0 21 -8.5 40t-26.5 39t-46.5 43t-68.5 50l-41 24.5l-46 27.5q-7 4 -16 6q1 0 -3 3t-9 6q-11 -4 -25.5 -13t-28 -22.5t-23 -32t-9.5 -42.5q0 -9 2.5 -22t11.5 -28t26.5 -32.5t46.5 -36.5l20 -12t20 -13l71.5 -45.5l60.5 -39.5q13 4 29 12.5t30 21.5t23.5 29.5
t9.5 36.5zM392 527q-2 69 -33.5 106.5t-96.5 37.5q-16 0 -36.5 -4.5t-38.5 -15t-29.5 -28.5t-9.5 -45q2 -31 15.5 -50t32.5 -33q20 -15 37 -25l34 -20q10 -5 17.5 -9.5t14.5 -7.5h-1q5 -3 12 -6.5t12 -7.5q53 -33 86.5 -59.5t52 -50.5t25.5 -48t7 -54q0 -24 -9 -45
t-23.5 -38.5t-31.5 -30.5t-33 -20q26 -29 35 -57t7 -53q-5 -33 -20.5 -59t-38 -44t-51 -28t-58.5 -10q-87 0 -134 54t-45 157h47q0 -36 7 -65.5t23 -51t41 -33.5t61 -12q33 0 56 9t37.5 23t21 30.5t6.5 30.5q0 17 -2 30t-9.5 25t-21.5 24.5t-37 29.5q-17 12 -39.5 26
l-46.5 29q-15 8 -29.5 18l-29.5 20q-5 5 -10.5 8l-10.5 6q-62 43 -85 83t-23 82q0 46 27 80.5t65 54.5q-16 16 -27.5 40.5t-11.5 58.5q0 44 18 71.5t43.5 42.5t53.5 20.5t49 5.5q40 0 72.5 -14.5t55 -41t35 -64t12.5 -83.5h-36z" />
    <glyph glyph-name="bullet" unicode="&#x2022;" 
d="M60 351q0 38 14 71.5t39 58t58.5 39t71.5 14.5t71.5 -14.5t58 -39t39 -58t14.5 -71.5t-14.5 -71.5t-39 -58.5t-58 -39t-71.5 -14t-71.5 14t-58.5 39t-39 58.5t-14 71.5z" />
    <glyph glyph-name="paragraph" unicode="&#xb6;" horiz-adv-x="600" 
d="M485 -131h-47v786h-125v-786h-48v442q-43 5 -81 22.5t-66.5 43t-45 58t-16.5 68.5q0 99 59 149.5t165 50.5h205v-834z" />
    <glyph glyph-name="germandbls" unicode="&#xdf;" horiz-adv-x="481" 
d="M195 413q34 -1 64.5 5.5t54 22t37.5 41t14 62.5q0 29 -11 52t-30 38.5t-44.5 24t-54.5 8.5q-17 0 -39.5 -4t-43 -17.5t-35 -39t-14.5 -69.5v-537h-48v540q0 49 16 82.5t41.5 54t57.5 29t65 8.5q36 0 70 -11.5t60.5 -33.5t42 -53.5t15.5 -71.5q0 -51 -19 -89.5t-60 -60.5
q65 -17 89.5 -64t24.5 -117q0 -50 -13 -90t-44 -68t-81.5 -42.5t-125.5 -12.5v48q47 -3 87 4t69 26t45 52t16 83q0 48 -16 77.5t-45 46.5t-69 23t-87 6v34z" />
    <glyph glyph-name="registered" unicode="&#xae;" horiz-adv-x="800" 
d="M68 351q0 -66 25.5 -124.5t69 -102t102 -68.5t124.5 -25t124 25t101.5 68.5t69 102t25.5 124.5t-25.5 124t-69 101.5t-101.5 69t-124 25.5t-124.5 -25.5t-102 -69t-69 -101.5t-25.5 -124zM21 351q0 76 28.5 143.5t78.5 117t117 78.5t144 29q76 0 143 -29t117 -78.5
t78.5 -117t28.5 -143.5q0 -77 -28.5 -143.5t-78.5 -116t-117 -78t-143 -28.5q-77 0 -144 28.5t-117 78t-78.5 116t-28.5 143.5zM387 363q19 0 39.5 2.5t37.5 10t28.5 22.5t11.5 40q0 24 -8.5 39t-23 23.5t-33 11.5t-38.5 3h-98v-152h84zM403 562q76 0 112 -32.5t36 -91.5
q0 -51 -28 -79t-68 -37l31 -48l32.5 -50.5l32.5 -50l30 -45.5h-56l-121 187h-101v-187h-47v434h147z" />
    <glyph glyph-name="copyright" unicode="&#xa9;" horiz-adv-x="800" 
d="M68 351q0 -66 25.5 -124.5t69 -102t102 -68.5t124.5 -25t124 25t101.5 68.5t69 102t25.5 124.5t-25.5 124t-69 101.5t-101.5 69t-124 25.5t-124.5 -25.5t-102 -69t-69 -101.5t-25.5 -124zM21 351q0 76 28.5 143.5t78.5 117t117 78.5t144 29q76 0 143 -29t117 -78.5
t78.5 -117t28.5 -143.5q0 -77 -28.5 -143.5t-78.5 -116t-117 -78t-143 -28.5q-77 0 -144 28.5t-117 78t-78.5 116t-28.5 143.5zM537 415q-4 28 -17 49.5t-32 35.5t-43 21t-49 7q-41 0 -73 -14t-54 -38.5t-33.5 -58t-11.5 -71.5t12 -71.5t34.5 -59t55 -40t73.5 -14.5
q48 0 87.5 32.5t53.5 95.5h49q-9 -39 -26 -71t-42 -55.5t-55.5 -36t-66.5 -12.5q-51 0 -92 18t-70 49t-44.5 73t-15.5 91q0 50 15 92.5t43.5 73t69 48t91.5 17.5q36 0 68 -11.5t57.5 -33.5t42.5 -54t23 -73h-37z" />
    <glyph glyph-name="trademark" unicode="&#x2122;" horiz-adv-x="990" 
d="M523 703l144 -339l34 80.5t34 81.5l37.5 88.5l37.5 88.5h56v-418h-47l-2 312l-46 -111l-46 -110l-19.5 -46l-18.5 -45h-39l-133 312v-312h-47v418h55zM76 655v48h332v-48h-143v-370h-47v370h-142z" />
    <glyph glyph-name="acute" unicode="&#xb4;" horiz-adv-x="130" 
d="M33 554h-54l152 165h68z" />
    <glyph glyph-name="dieresis" unicode="&#xa8;" horiz-adv-x="130" 
d="M113 662h47v-105h-47v105zM-34 662h48v-105h-48v105z" />
    <glyph glyph-name="AE" unicode="&#xc6;" horiz-adv-x="852" 
d="M190 311h209v357h-22zM25 0h-52l379 714h472v-48h-376v-271h345v-48h-345v-299h376v-48h-425v263h-234z" />
    <glyph glyph-name="Oslash" unicode="&#xd8;" horiz-adv-x="721" 
d="M25 30l71 78q-35 51 -54 114t-19 135q0 76 22 144t64 119t103.5 81t141.5 30q71 0 126.5 -23t97.5 -65l15 17t16 17q6 5 13 13t12 13l35 -30l-59 -67q39 -51 56.5 -113.5t17.5 -135.5q0 -76 -21.5 -144t-63.5 -119t-103.5 -80.5t-141.5 -29.5q-70 0 -127 23t-99 65
l-34 -37.5l-33 -35.5zM636 357q-1 62 -16.5 115.5t-43.5 95.5l-207.5 -230.5l-207.5 -228.5q35 -35 82.5 -56t110.5 -21q66 0 117.5 24.5t88 67.5t56 102.5t20.5 130.5zM573 573q2 -4 3 -5q2 1 2.5 2t2.5 3h-8zM142 89q5 5 9.5 10l9.5 11l-6 6q-1 1 -5.5 6t-5.5 6zM71 357
q1 -63 16 -116t43 -95l114.5 126l113.5 127l93 103.5l93 104.5q-35 35 -82.5 55t-107.5 20q-66 0 -118 -24.5t-88.5 -67.5t-56 -103t-20.5 -130zM134 141q-3 3 -4 5q-1 -2 -4 -5h8zM563 615l-8 2q-1 -2 -7 -6q-2 -5 2.5 -9.5t10.5 -7.5z" />
    <glyph glyph-name="plusminus" unicode="&#xb1;" horiz-adv-x="600" 
d="M544 48v-48h-505v48h505zM316 506v-186h228v-48h-228v-187h-48v187h-229v48h229v186h48z" />
    <glyph glyph-name="yen" unicode="&#xa5;" horiz-adv-x="556" 
d="M432 221v-48h-139v-173h-47v173h-139v48h139v67h-139v47h118l-36 60l-36 60l-76.5 126.5l-74.5 121.5h55l214 -349l41 67.5l42 68.5l64.5 108l64.5 105h55l-223 -368h117v-47h-139v-67h139z" />
    <glyph glyph-name="mu" unicode="&#xb5;" horiz-adv-x="556" 
d="M420 0l-1 68q-26 -36 -66.5 -57.5t-94.5 -21.5q-39 0 -75 13t-64 42v-210h-48v680h47v-334q0 -38 11 -65.5t30.5 -45t44.5 -25.5t54 -8q40 0 70.5 15.5t50.5 41.5t30.5 60t10.5 72v289h48v-514h-48z" />
    <glyph glyph-name="pi" unicode="&#x3c0;" horiz-adv-x="556" 
d="M457 -4q-26 0 -39.5 9t-20.5 23.5t-8 32.5t-1 35v370h-249v-466h-47v466h-69v48h485v-48h-73v-376q0 -16 3 -32t19 -16q17 0 56 33v-60q-31 -19 -56 -19z" />
    <glyph glyph-name="ordfeminine" unicode="&#xaa;" horiz-adv-x="300" 
d="M269 353q-17 0 -30 7t-16 25q-18 -17 -47 -28t-66 -11q-23 0 -45 5.5t-38.5 16.5t-26.5 29t-10 43q0 33 11.5 53t29.5 31t41 14.5t47 5.5q3 0 6 0.5t7 0.5h12q32 1 55 5t23 22q0 35 -18 49t-59 14q-42 0 -63.5 -21.5t-26.5 -58.5h-48q7 60 40.5 93.5t97.5 33.5
q53 0 87.5 -21t36.5 -77v-180q0 -4 10.5 -3.5t22.5 2.5v-50h-33zM110 394q56 0 84 28t28 68v18q-14 -6 -32 -7t-39 -2q-20 -1 -39.5 -3t-35.5 -8t-26.5 -17.5t-11.5 -30.5q0 -26 22.5 -36t49.5 -10zM238 533l-16 15v-40q9 5 16.5 12.5t14.5 20.5z" />
    <glyph glyph-name="ordmasculine" unicode="&#xba;" horiz-adv-x="300" 
d="M38 516q0 -23 7 -45t21 -39t34.5 -27.5t46.5 -10.5q25 0 45.5 10.5t34 27.5t21 39t7.5 45q0 22 -7.5 43.5t-21 38t-34 27t-45.5 10.5q-26 0 -46.5 -10.5t-34.5 -27t-21 -38t-7 -43.5zM-10 516q0 32 10.5 62t30.5 53t49 37t67 14q39 0 68 -14t48.5 -37t29.5 -53t10 -62
q0 -33 -10 -63.5t-29.5 -54.5t-49 -38t-68.5 -14q-37 0 -66 14t-49 38t-30.5 54.5t-10.5 63.5z" />
    <glyph glyph-name="Omegagreek" unicode="&#x3a9;" horiz-adv-x="693" 
d="M37 48h189v85q-48 15 -83.5 42t-59 63t-35 80t-11.5 93q0 63 23 119.5t63.5 98.5t96 67t119.5 25t119.5 -24.5t96 -67t63.5 -99t23 -120.5q0 -100 -45.5 -173t-142.5 -103v-86h189v-48h-237v171q97 26 142.5 89.5t45.5 149.5q0 53 -19.5 101t-53.5 84t-80.5 57t-100.5 21
t-100.5 -21t-80.5 -57t-53.5 -83.5t-19.5 -100.5q0 -41 12.5 -79.5t36.5 -70t59.5 -55t81.5 -35.5v-171h-238v48z" />
    <glyph glyph-name="ae" unicode="&#xe6;" horiz-adv-x="889" 
d="M58 347q2 38 15.5 70.5t38 56.5t61.5 38t85 14q30 0 57 -4.5t49 -16.5t38.5 -32.5t24.5 -51.5q26 48 73 76.5t113 28.5q59 0 102 -23.5t70.5 -63.5t40 -91.5t10.5 -108.5h-402q4 -41 15.5 -78t32.5 -64.5t53 -44t77 -16.5q33 0 62.5 10.5t53 30.5t38.5 50.5t20 69.5h48
q-5 -47 -23.5 -85t-47.5 -65.5t-67.5 -42.5t-83.5 -15q-74 -1 -124.5 31t-77.5 93q-25 -62 -79 -93t-126 -31q-81 0 -128.5 36.5t-47.5 108.5q0 48 16 78t41.5 47.5t57.5 25t64 9.5q5 1 14 1h12q37 2 65.5 5t47.5 9.5t28.5 17.5t9.5 31q0 19 -3.5 40.5t-16.5 39t-38.5 29
t-68.5 11.5q-71 0 -109.5 -37t-43.5 -106h-35zM203 36q44 0 78 15t57 39t35 55.5t12 64.5v60q-26 -12 -64 -16t-76 -6q-3 -1 -8.5 -1h-9.5q-5 0 -9 -0.5t-8 -0.5q-26 -2 -50 -6.5t-43 -16.5t-30 -33t-11 -56q0 -18 6.5 -36t21.5 -31.5t39 -22t60 -8.5zM400 297l-15 15v-44
l13.5 11.5t11.5 13.5l-5 6zM613 478q-79 0 -124 -52t-54 -140h353q-2 40 -13.5 75t-33.5 61t-54 41t-74 15zM815 286h-27v-27z" />
    <glyph glyph-name="oslash" unicode="&#xf8;" horiz-adv-x="519" 
d="M486 471l-46 -48q23 -35 34 -76.5t11 -89.5q0 -53 -15 -101.5t-44.5 -85.5t-73 -59t-100.5 -22q-54 0 -93.5 17.5t-68.5 49.5l-27 -28.5l-25 -26.5l-34 33l58 61q-20 34 -31.5 76.5t-11.5 85.5q0 52 15 101t44.5 86t73 59.5t100.5 22.5q51 0 90 -17.5t69 -48.5
q5 7 11 12.5t12 12.5l11 11l8 8zM437 257q0 74 -31 129l-122 -127.5l-123 -128.5q-10 -10 -18 -19t-19 -20q22 -22 56 -38.5t72 -16.5q45 0 80 18t58 49t35 70.5t12 83.5zM403 391q2 -4 3 -5l4 5h-7zM107 84l8 -2l8 12q-5 2 -5 4h-10zM67 257q0 -74 28 -127l69.5 72l70.5 74
l71 74l71 74q-22 24 -54 39t-71 15q-45 0 -80 -18.5t-58 -49.5t-35 -71t-12 -82zM98 125q0 2 -1 2.5t-2 2.5q-1 -2 -2 -2.5t-2 -1.5zM396 444l-22 -21l20 -12z" />
    <glyph glyph-name="questiondown" unicode="&#xbf;" 
d="M274 419h-47v121h47v-121zM461 64q1 -53 -13 -97.5t-42 -76.5t-69.5 -50t-94.5 -18q-42 0 -78.5 11.5t-64 33t-43 53.5t-15.5 73q0 34 9.5 61t23.5 48t30 37l29 28q1 2 3 4.5t1 1.5q24 23 41 42.5t27.5 41.5t15.5 48.5t5 63.5h47q0 -38 -4.5 -67.5t-16 -56t-30 -51
t-46.5 -51.5h1l-3 -3q-2 -2 -1 -0.5t-1 -0.5l-23.5 -21t-27.5 -31.5t-22.5 -42t-9.5 -51.5q0 -60 43.5 -91t109.5 -31q43 0 76 15t54.5 42t31.5 64.5t9 82.5h35z" />
    <glyph glyph-name="exclamdown" unicode="&#xa1;" horiz-adv-x="185" 
d="M115 -166h-48v535h48v-535zM115 419h-48v121h48v-121z" />
    <glyph glyph-name="logicalnot" unicode="&#xac;" horiz-adv-x="600" 
d="M39 321v48h505v-281h-48v233h-457z" />
    <glyph glyph-name="guillemotleft" unicode="&#xab;" horiz-adv-x="352" 
d="M140 255v25l126 169v-80l-75 -101l23.5 -33.5t25.5 -33.5l14 -17.5t12 -16.5v-82zM53 255v25l125 169v-80l-75 -101q23 -34 49 -67q6 -9 13 -17.5t13 -16.5v-82z" />
    <glyph glyph-name="guillemotright" unicode="&#xbb;" horiz-adv-x="352" 
d="M202 280v-25l-126 -170v82l75 100l-37.5 51l-37.5 51v80zM289 280v-25l-125 -170v82l74 100q-3 3 -4.5 6.5t-4.5 7.5l-33.5 44.5l-31.5 43.5v80z" />
    <glyph glyph-name="ellipsis" unicode="&#x2026;" horiz-adv-x="1000" 
d="M777 0v122h47v-122h-47zM462 0v122h48v-122h-48zM148 0v122h47v-122h-47z" />
    <glyph glyph-name="nonbreakingspace" unicode="&#xa0;" horiz-adv-x="278" 
 />
    <glyph glyph-name="Agrave" unicode="&#xc0;" horiz-adv-x="575" 
d="M218 901l145 -167h-52l-162 167h69zM27 0h-54l289 714h46l283 -714h-55l-90 226h-328zM284 639l-44.5 -110.5l-44.5 -108.5l-29 -72.5l-30 -73.5h292z" />
    <glyph glyph-name="Atilde" unicode="&#xc3;" horiz-adv-x="575" 
d="M141 759q0 17 6.5 33.5t17.5 30t25.5 22t30.5 8.5q21 0 39 -10.5l36 -21.5q13 -10 24.5 -16.5t21.5 -6.5q17 0 25 16t8 36h48q0 -39 -20 -69.5t-61 -30.5q-21 0 -39.5 10t-34.5 22l-24.5 15.5t-22.5 7.5q-7 0 -13 -5.5t-10 -14t-6.5 -18t-2.5 -18.5h-35zM27 0h-54
l289 714h46l283 -714h-55l-90 226h-328zM284 639l-44.5 -110.5l-44.5 -108.5l-29 -72.5l-30 -73.5h292z" />
    <glyph glyph-name="Otilde" unicode="&#xd5;" horiz-adv-x="721" 
d="M213 759q0 17 6.5 33.5t17.5 30t25 22t30 8.5q21 0 39.5 -10.5t35.5 -21.5q13 -10 25 -16.5t22 -6.5q16 0 24 16t8 36h49q0 -39 -20 -69.5t-61 -30.5q-22 0 -40.5 10t-33.5 22l-25 15.5t-23 7.5q-7 0 -12.5 -5.5t-9.5 -14t-6.5 -18t-2.5 -18.5h-36zM23 357q0 76 22 144
t64 119t103.5 81t141.5 30t141.5 -30t103.5 -81t63.5 -119t21.5 -144t-21.5 -144t-63.5 -119t-103.5 -80.5t-141.5 -29.5t-141.5 29.5t-103.5 80.5t-64 119t-22 144zM71 357q1 -71 20.5 -130.5t56 -102.5t88.5 -67.5t118 -24.5t117.5 24.5t88 67.5t56 102.5t20.5 130.5
q-1 70 -20.5 130t-56 103t-88 67.5t-117.5 24.5t-118 -24.5t-88.5 -67.5t-56 -103t-20.5 -130z" />
    <glyph glyph-name="endash" unicode="&#x2013;" 
d="M494 291v-48h-501v48h501z" />
    <glyph glyph-name="emdash" unicode="&#x2014;" horiz-adv-x="1000" 
d="M122 243v48h727v-48h-727z" />
    <glyph glyph-name="quotedblleft" unicode="&#x201c;" horiz-adv-x="278" 
d="M162 588q0 27 3.5 46t11.5 32.5t22 24t35 21.5v-50q-14 -10 -19 -26t-5 -48v-126h-48v126zM68 588q0 27 3.5 46t11.5 32.5t22 24t35 21.5v-50q-15 -10 -19.5 -26t-4.5 -48v-126h-48v126z" />
    <glyph glyph-name="quotedblright" unicode="&#x201d;" horiz-adv-x="278" 
d="M107 577q0 -28 -3 -47t-11.5 -32.5t-22 -24t-34.5 -21.5v50q14 10 19 26.5t5 48.5v126h47v-126zM202 577q0 -28 -3 -46.5t-11.5 -32.5t-22 -24.5t-34.5 -21.5v50q14 10 18.5 26.5t4.5 48.5v126h48v-126z" />
    <glyph glyph-name="quoteleft" unicode="&#x2018;" horiz-adv-x="167" 
d="M57 588q0 27 3 46t11.5 32.5t22 24t34.5 21.5v-50q-14 -10 -18.5 -26t-4.5 -48v-126h-48v126z" />
    <glyph glyph-name="quoteright" unicode="&#x2019;" horiz-adv-x="167" 
d="M105 577q0 -28 -3 -47t-11.5 -32.5t-22 -24t-34.5 -21.5v50q14 10 19 26.5t5 48.5v126h47v-126z" />
    <glyph glyph-name="divide" unicode="&#xf7;" horiz-adv-x="600" 
d="M291 0q-27 0 -40 15t-13 38t15 38t38 15t38 -15t15 -38t-11 -38t-42 -15zM291 400q-27 0 -40 15t-13 38q0 24 15 38.5t38 14.5t38 -15t15 -38t-11 -38t-42 -15zM39 277h505v-47h-505v47z" />
    <glyph glyph-name="ydieresis" unicode="&#xff;" horiz-adv-x="407" 
d="M248 662h47v-105h-47v105zM101 662h47v-105h-47v105zM423 514l-232 -603q-11 -28 -26.5 -43.5t-35.5 -23t-44 -9t-51 -1.5v47q26 0 44.5 1.5t31.5 7t22 16t17 29.5l32 84l-35 84l-36 85l-69.5 165l-67.5 161h52l183 -433l60 159.5l60 158.5l21.5 58l21.5 57h52z" />
    <glyph glyph-name="fraction" unicode="&#x2044;" horiz-adv-x="167" 
d="M342 703l-466 -734h-56l467 734h55z" />
    <glyph glyph-name="Euro" unicode="&#x20ac;" horiz-adv-x="556" 
d="M552 71q-84 -84 -207 -84q-61 0 -110.5 21t-87 57t-61.5 84.5t-33 104.5h-66l17 45h44v25v20.5t1 20.5h-63l18 44h50q9 58 33 108.5t62 88t89 58.5t114 21q53 0 100 -18.5t94 -55.5l-24 -39q-44 34 -83.5 51t-87.5 17q-52 0 -94.5 -17.5t-74.5 -48.5t-52.5 -73.5
t-27.5 -91.5h392l-25 -44h-373q-1 -7 -0.5 -16.5t0.5 -14.5q0 -11 -0.5 -17.5t1.5 -17.5h368l-25 -45h-336q11 -45 32 -85t52 -71t71 -49t89 -18q110 0 210 117v-67z" />
    <glyph glyph-name="guilsinglleft" unicode="&#x2039;" horiz-adv-x="259" 
d="M51 255v25l126 169v-80l-75 -101l38 -51.5l37 -49.5v-82z" />
    <glyph glyph-name="guilsinglright" unicode="&#x203a;" horiz-adv-x="259" 
d="M200 280v-25l-125 -170v82l74 100q-2 3 -3.5 6.5t-4.5 7.5l-34.5 44.5l-31.5 43.5v80z" />
    <glyph glyph-name="daggerdbl" unicode="&#x2021;" horiz-adv-x="556" 
d="M50 101h197v368h-197v48h197v186h47v-186h196v-48h-196v-368h196v-47h-196v-185h-47v185h-197v47z" />
    <glyph glyph-name="periodcentered" unicode="&#xb7;" horiz-adv-x="278" 
d="M91 335q0 20 12 32.5t32 12.5t32.5 -12.5t12.5 -32.5t-12.5 -32.5t-32.5 -12.5t-32 12.5t-12 32.5z" />
    <glyph glyph-name="quotesinglbase" unicode="&#x201a;" horiz-adv-x="167" 
d="M104 15q0 -47 -14.5 -79t-56.5 -59v50q14 13 19 33t5 55v107h47v-107z" />
    <glyph glyph-name="quotedblbase" unicode="&#x201e;" horiz-adv-x="278" 
d="M107 15q0 -47 -14.5 -79t-56.5 -59v50q14 13 19 33t5 55v107h47v-107zM202 15q0 -47 -15 -79t-56 -59v50q13 13 18 33t5 55v107h48v-107z" />
    <glyph glyph-name="perthousand" unicode="&#x2030;" horiz-adv-x="1037" 
d="M595 703l-468 -734h-54l467 734h55zM717 163q0 -26 7 -49t20.5 -40.5t34 -27.5t48.5 -10t49 10.5t35.5 27.5t22 40t7.5 49q0 59 -28 94t-86 35t-84 -36.5t-26 -92.5zM670 163q0 39 10.5 71.5t30.5 56t49 36.5t67 13q39 0 69.5 -13t50.5 -36.5t30.5 -55.5t10.5 -71
q0 -36 -10.5 -67.5t-31 -55.5t-50.5 -38t-69 -14q-41 0 -70.5 14t-48.5 38t-28.5 55.5t-9.5 66.5zM378 163q0 -26 6.5 -49t20 -40.5t34 -27.5t48.5 -10t49 10.5t35.5 27.5t21.5 40t7 49q0 59 -27 94t-86 35q-57 0 -83 -36.5t-26 -92.5zM330 163q0 39 10.5 71.5t30.5 56
t49 36.5t67 13q39 0 69.5 -13t50.5 -36.5t30.5 -55.5t10.5 -71q0 -36 -10.5 -67.5t-31 -55.5t-50.5 -38t-69 -14q-41 0 -70.5 14t-48.5 38t-28.5 55.5t-9.5 66.5zM68 504q0 -26 6.5 -48.5t20 -40t34 -27.5t48.5 -10t49.5 10.5t35.5 27.5t21.5 40t7.5 48q0 60 -27.5 95.5
t-86.5 35.5q-57 0 -83 -37t-26 -94zM20 504q0 39 10.5 71.5t30.5 56t49 37t67 13.5q39 0 69.5 -13t50.5 -36.5t30.5 -56t10.5 -71.5q0 -35 -10.5 -66.5t-31 -55.5t-50.5 -38t-69 -14q-41 0 -70.5 14.5t-48.5 38.5t-28.5 55t-9.5 65z" />
    <glyph glyph-name="Acircumflex" unicode="&#xc2;" horiz-adv-x="575" 
d="M280 848l-45 -57l-22 -27t-21 -25h-56l131 162h29l133 -162h-57zM27 0h-54l289 714h46l283 -714h-55l-90 226h-328zM284 639l-44.5 -110.5l-44.5 -108.5l-29 -72.5l-30 -73.5h292z" />
    <glyph glyph-name="Ecircumflex" unicode="&#xca;" horiz-adv-x="537" 
d="M262 848l-38 -47.5l-39 -48.5q-5 -5 -11 -13h-56l132 162h27l134 -162h-57zM531 48v-48h-488v714h484v-48h-435v-271h409v-48h-409v-299h439z" />
    <glyph glyph-name="Aacute" unicode="&#xc1;" horiz-adv-x="575" 
d="M250 734h-54l154 167h70zM27 0h-54l289 714h46l283 -714h-55l-90 226h-328zM284 639l-44.5 -110.5l-44.5 -108.5l-29 -72.5l-30 -73.5h292z" />
    <glyph glyph-name="Edieresis" unicode="&#xcb;" horiz-adv-x="537" 
d="M315 843h48v-106h-48v106zM165 843h48v-106h-48v106zM531 48v-48h-488v714h484v-48h-435v-271h409v-48h-409v-299h439z" />
    <glyph glyph-name="Egrave" unicode="&#xc8;" horiz-adv-x="537" 
d="M200 901l145 -167h-52l-162 167h69zM531 48v-48h-488v714h484v-48h-435v-271h409v-48h-409v-299h439z" />
    <glyph glyph-name="Iacute" unicode="&#xcd;" horiz-adv-x="128" 
d="M31 734h-53l153 167h70zM87 714v-714h-48v714h48z" />
    <glyph glyph-name="Icircumflex" unicode="&#xce;" horiz-adv-x="128" 
d="M61 848q-9 -11 -17.5 -22.5t-18.5 -22.5l-26 -33.5l-25 -30.5h-56l130 162h28l134 -162h-57zM87 714v-714h-48v714h48z" />
    <glyph glyph-name="Idieresis" unicode="&#xcf;" horiz-adv-x="128" 
d="M114 843h47v-106h-47v106zM-35 843h48v-106h-48v106zM87 714v-714h-48v714h48z" />
    <glyph glyph-name="Igrave" unicode="&#xcc;" horiz-adv-x="128" 
d="M-1 901l144 -167h-52l-161 167h69zM86 714v-714h-48v714h48z" />
    <glyph glyph-name="Oacute" unicode="&#xd3;" horiz-adv-x="721" 
d="M322 734h-54l154 167h70zM23 357q0 76 22 144t64 119t103.5 81t141.5 30t141.5 -30t103.5 -81t63.5 -119t21.5 -144t-21.5 -144t-63.5 -119t-103.5 -80.5t-141.5 -29.5t-141.5 29.5t-103.5 80.5t-64 119t-22 144zM71 357q1 -71 20.5 -130.5t56 -102.5t88.5 -67.5
t118 -24.5t117.5 24.5t88 67.5t56 102.5t20.5 130.5q-1 70 -20.5 130t-56 103t-88 67.5t-117.5 24.5t-118 -24.5t-88.5 -67.5t-56 -103t-20.5 -130z" />
    <glyph glyph-name="Ocircumflex" unicode="&#xd4;" horiz-adv-x="721" 
d="M352 848l-22.5 -28.5l-23.5 -28.5q-11 -13 -21.5 -27t-20.5 -25h-56l131 162h28l133 -162h-57zM23 357q0 76 22 144t64 119t103.5 81t141.5 30t141.5 -30t103.5 -81t63.5 -119t21.5 -144t-21.5 -144t-63.5 -119t-103.5 -80.5t-141.5 -29.5t-141.5 29.5t-103.5 80.5
t-64 119t-22 144zM71 357q1 -71 20.5 -130.5t56 -102.5t88.5 -67.5t118 -24.5t117.5 24.5t88 67.5t56 102.5t20.5 130.5q-1 70 -20.5 130t-56 103t-88 67.5t-117.5 24.5t-118 -24.5t-88.5 -67.5t-56 -103t-20.5 -130z" />
    <glyph glyph-name="Ograve" unicode="&#xd2;" horiz-adv-x="721" 
d="M289 901l145 -167h-52l-161 167h68zM23 357q0 76 22 144t64 119t103.5 81t141.5 30t141.5 -30t103.5 -81t63.5 -119t21.5 -144t-21.5 -144t-63.5 -119t-103.5 -80.5t-141.5 -29.5t-141.5 29.5t-103.5 80.5t-64 119t-22 144zM71 357q1 -71 20.5 -130.5t56 -102.5
t88.5 -67.5t118 -24.5t117.5 24.5t88 67.5t56 102.5t20.5 130.5q-1 70 -20.5 130t-56 103t-88 67.5t-117.5 24.5t-118 -24.5t-88.5 -67.5t-56 -103t-20.5 -130z" />
    <glyph glyph-name="Uacute" unicode="&#xda;" horiz-adv-x="632" 
d="M278 734h-54l154 167h69zM575 714v-445q0 -146 -67 -215.5t-198 -69.5t-198.5 69.5t-67.5 215.5v445h48v-445q0 -117 53 -177t165 -60t164.5 60t52.5 177v445h48z" />
    <glyph glyph-name="Ucircumflex" unicode="&#xdb;" horiz-adv-x="632" 
d="M308 848q-20 -23 -38.5 -47.5t-38.5 -48.5l-6 -6t-6 -7h-55l131 162h28l134 -162h-57zM575 714v-445q0 -146 -67 -215.5t-198 -69.5t-198.5 69.5t-67.5 215.5v445h48v-445q0 -117 53 -177t165 -60t164.5 60t52.5 177v445h48z" />
    <glyph glyph-name="Ugrave" unicode="&#xd9;" horiz-adv-x="632" 
d="M246 901l145 -167h-53l-161 167h69zM575 714v-445q0 -146 -67 -215.5t-198 -69.5t-198.5 69.5t-67.5 215.5v445h48v-445q0 -117 53 -177t165 -60t164.5 60t52.5 177v445h48z" />
    <glyph glyph-name="macron" unicode="&#xaf;" horiz-adv-x="130" 
d="M-60 592v49h247v-49h-247z" />
    <glyph glyph-name="cedilla" unicode="&#xb8;" horiz-adv-x="130" 
d="M-7 -110q13 -6 29 -10.5t34 -4.5q21 0 39.5 8t18.5 29q0 12 -13 17.5t-24 5.5q-24 0 -51 -15l-35 22l68 86h54l-34 -46q33 0 58 -16t25 -54q0 -26 -8.5 -42t-23.5 -25.5t-34 -13t-40 -3.5q-27 0 -52 7.5t-45 15.5l16 33z" />
    <glyph glyph-name="currency" unicode="&#xa4;" horiz-adv-x="556" 
d="M471 335q0 41 -16 78t-43.5 64.5t-64 43.5t-77.5 16t-77.5 -16t-64 -43.5t-43.5 -64.5t-16 -78t16 -77.5t43.5 -64t64 -43.5t77.5 -16t77.5 16t64 43.5t43.5 64t16 77.5zM517 547l-55 -54q12 -17 22 -36.5t18 -40.5t12.5 -41.5t4.5 -39.5q0 -42 -14.5 -82t-42.5 -75
l55 -55l-35 -35l-54 55q-35 -26 -75.5 -40.5t-82.5 -15.5q-42 0 -82.5 14.5t-75.5 41.5l-54 -55l-35 35l55 55q-28 35 -42.5 75t-14.5 82q1 42 16 82.5t41 75.5l-27.5 27.5l-27.5 26.5l35 35l54 -54q35 28 75.5 42t82.5 14q43 0 83 -13.5t75 -42.5l54 54z" />
    <glyph glyph-name="threequarters" unicode="&#xbe;" horiz-adv-x="834" 
d="M62 540q-1 35 10.5 61.5t32.5 44.5t50 27t64 9q25 0 51 -5t47 -17.5t34 -33.5t13 -53q0 -29 -14 -52.5t-37 -37.5q26 -13 42.5 -37.5t16.5 -62.5q0 -30 -12.5 -54t-34 -40.5t-49.5 -25t-59 -8.5q-81 0 -127 43t-41 123h49q-5 -60 28 -89.5t90 -29.5q21 0 40.5 5
t34.5 15.5t24 25.5t9 35q0 22 -9.5 37t-24.5 24t-34 12.5t-39 3.5h-12q-3 0 -7.5 -1t-18.5 -6v54h40q18 0 36 3.5t31.5 11.5t22 20.5t8.5 30.5q0 19 -8.5 31.5t-22.5 19t-32 9t-36 2.5q-54 0 -81.5 -25t-27.5 -82h-35zM695 703l-467 -734h-55l468 734h54zM642 144v188
l-72.5 -93.5l-72.5 -94.5h145zM673 370l-31 12v-51l24 33zM434 139l211 275h45v-270h71v-48h-71v-96h-48v96h-208v43z" />
    <glyph glyph-name="onequarter" unicode="&#xbc;" horiz-adv-x="834" 
d="M206 262v343q-22 -17 -53 -31.5t-60 -22.5v50q21 6 37.5 13.5t30.5 16.5t26.5 20t25.5 25h40v-414h-47zM644 703l-467 -734h-55l467 734h55zM596 144v189l-71.5 -94l-72.5 -95h144zM628 370l-32 12v-51l25 33zM388 139l211 275h45v-270h72v-48h-72v-96h-48v96h-208v43z
" />
    <glyph glyph-name="onesuperior" unicode="&#xb9;" horiz-adv-x="333" 
d="M160 262v343q-22 -17 -52 -31.5t-60 -22.5v50q42 13 67.5 29.5t51.5 45.5h41v-414h-48z" />
    <glyph glyph-name="multiply" unicode="&#xd7;" horiz-adv-x="600" 
d="M112 466l178 -181l180 180l35 -32l-180 -180q16 -17 33 -33t34 -34h-1q29 -27 58 -57l55 -56l-33 -34l-181 181l-89 -91l-89 -90l-33 36l178 178l-90 90l-89 90z" />
    <glyph glyph-name="Thorn" unicode="&#xde;" horiz-adv-x="574" 
d="M335 595q106 0 164.5 -50.5t58.5 -151.5q0 -48 -17.5 -85.5t-48 -63t-73 -38.5t-93.5 -13h-234v-193h-48v714h48v-119h243zM335 241q37 0 69 10t55.5 29.5t37 48t13.5 64.5q0 75 -43 114t-132 39h-243v-305h243z" />
    <glyph glyph-name="brokenbar" unicode="&#xa6;" horiz-adv-x="222" 
d="M132 388h-48v264h48v-264zM84 -83v263h48v-263h-48z" />
    <glyph glyph-name="Eth" unicode="&#xd0;" horiz-adv-x="648" 
d="M92 48h180q58 0 109.5 18.5t90 57t61 96.5t22.5 137q0 92 -22.5 151.5t-59.5 94.5t-84 49t-96 14h-201v-271h285v-48h-285v-299zM-17 395h60v319h255q54 0 108.5 -16.5t98.5 -57t71.5 -109.5t27.5 -174q0 -96 -28 -164t-75 -110.5t-107.5 -62.5t-125.5 -20h-225v347h-60
v48z" />
    <glyph glyph-name="onehalf" unicode="&#xbd;" horiz-adv-x="834" 
d="M753 0h-310q0 32 9 55.5t24 42t35 32.5l42 28q3 1 5 2l4 2q1 1 3.5 2t14.5 11l43.5 29.5t36.5 30.5t25 34t9 39q0 33 -26.5 49t-68.5 16q-54 0 -78 -30t-23 -84h-48q1 39 9 69t25.5 51t45.5 31.5t69 10.5q30 0 56 -6.5t45.5 -20.5t30.5 -35.5t11 -50.5q0 -22 -5 -40.5
t-19.5 -38t-40.5 -41t-67 -49.5q-37 -23 -68 -46t-43 -45h254v-48zM171 262v343q-23 -17 -53 -31.5t-59 -22.5v50q22 6 38.5 13t30 16t25.5 20.5t25 25.5h41v-414h-48zM600 703l-468 -734h-55l468 734h55z" />
    <glyph glyph-name="minus" unicode="&#x2212;" horiz-adv-x="600" 
d="M39 277h505v-47h-505v47z" />
    <glyph glyph-name="eth" unicode="&#xf0;" horiz-adv-x="519" 
d="M67 248q0 -41 12 -79t35.5 -67.5t58 -47t80.5 -17.5q45 0 79.5 17.5t58 47t35.5 67.5t12 79t-12 79t-35.5 67.5t-58 47.5t-79.5 18q-46 0 -80.5 -18t-58 -47.5t-35.5 -67.5t-12 -79zM104 566l112 62q-15 11 -37 24t-50 28l38 33q30 -14 54 -30t41 -30l52 28.5l51 27.5
q1 0 3 1.5t11 7.5l35 -37l-112 -62q49 -47 83.5 -91t56.5 -89t32.5 -92t10.5 -99q0 -51 -15 -97.5t-44.5 -82.5t-73 -57t-100.5 -21q-56 0 -99.5 21t-73 57t-45 82.5t-15.5 97.5t15 98t45 82.5t73.5 57t100.5 21.5q25 0 52 -5.5t51 -16.5q-26 35 -52 63.5t-49 47.5
l-29.5 -16.5t-30.5 -18.5l-28.5 -16t-25.5 -15z" />
    <glyph glyph-name="thorn" unicode="&#xfe;" horiz-adv-x="537" 
d="M46 -166v869h47l2 -270q26 45 70 69t110 24q54 0 95.5 -20t69.5 -56t42 -85t14 -107q0 -54 -13 -103t-40 -85.5t-68.5 -58.5t-99.5 -22q-59 0 -106 25.5t-76 68.5v-249h-47zM449 258q0 44 -10 84t-31 70t-54 48t-79 18t-80 -18t-56.5 -48t-34 -70t-11.5 -84
q0 -53 13.5 -94.5t37.5 -70t57.5 -43t73.5 -14.5q49 0 82.5 20t54 51.5t29 71t8.5 79.5z" />
    <glyph glyph-name="twosuperior" unicode="&#xb2;" horiz-adv-x="333" 
d="M317 262h-310q0 31 9.5 54.5t25.5 42t36.5 33.5l42.5 30h-1q2 2 6 2q1 0 4 2.5t14 10.5q23 14 44 28.5t36.5 30.5t25 34.5t9.5 39.5q0 33 -27 49t-69 16q-54 0 -78 -30.5t-23 -84.5h-47q1 78 34 120t114 42q30 0 56.5 -6.5t45.5 -20t30 -34.5t11 -51q0 -22 -5 -40.5
t-19.5 -38t-40.5 -41.5t-67 -49q-36 -23 -67 -46.5t-44 -45.5h254v-47z" />
    <glyph glyph-name="threesuperior" unicode="&#xb3;" horiz-adv-x="333" 
d="M13 540q-1 35 10.5 61.5t32.5 44.5t50 27t64 9q26 0 52 -5t46.5 -17.5t33.5 -33.5t13 -53q0 -29 -13.5 -52.5t-37.5 -37.5q27 -13 43 -37.5t16 -62.5q0 -30 -12.5 -54t-34 -40.5t-49.5 -25t-59 -8.5q-81 0 -126.5 43t-40.5 123h49q-5 -60 28 -89.5t89 -29.5q21 0 40.5 5
t34.5 15.5t24 25.5t9 35q0 22 -9.5 36.5t-24.5 23.5t-34 12.5t-39 3.5h-37v48h39q18 0 35.5 3.5t31 11.5t22 20.5t8.5 30.5q0 19 -8.5 31.5t-22 19t-31.5 9t-36 2.5q-53 0 -81 -25t-28 -82h-35z" />
    <glyph glyph-name="Yacute" unicode="&#xdd;" horiz-adv-x="538" 
d="M232 755h-55l154 167h70zM579 714l-291 -415v-299h-48v300l-74 105l-75 108l-72 102l-69 99h60l253 -366l128.5 183.5l128.5 182.5h59z" />
    <glyph glyph-name="yacute" unicode="&#xfd;" horiz-adv-x="407" 
d="M168 554h-54l151 165h68zM423 514l-232 -603q-11 -28 -26.5 -43.5t-35.5 -23t-44 -9t-51 -1.5v47q26 0 44.5 1.5t31.5 7t22 16t17 29.5l32 84l-35 84l-36 85l-69.5 165l-67.5 161h52l183 -433l60 159.5l60 158.5l21.5 58l21.5 57h52z" />
    <glyph glyph-name="soliduslongoverlaycmb" unicode="&#x338;" horiz-adv-x="0" 
d="M-33 719h51l-322 -734h-49z" />
    <glyph glyph-name="uni0259" unicode="&#x259;" horiz-adv-x="507" 
d="M244 -11q-60 0 -103.5 24t-71.5 64t-41 92t-11 107h405q-4 40 -15.5 77t-32.5 65t-52.5 44.5t-75.5 16.5q-72 0 -118.5 -40t-59.5 -121h-47q14 99 74 153.5t149 54.5q60 0 103 -20.5t70.5 -56.5t40 -85t12.5 -106q0 -64 -19 -114t-50.5 -84.5t-72 -52.5t-84.5 -18z
M242 37q35 0 65.5 14t54 39t39 60.5t20.5 78.5h-356q3 -38 15.5 -73t35 -61.5t54 -42t72.5 -15.5z" />
    <glyph glyph-name="afii10023" unicode="&#x401;" horiz-adv-x="537" 
d="M43 714h484v-48h-435v-271h409v-48h-409v-299h439v-48h-488v714zM342 843h49v-106h-49v106zM194 843h48v-106h-48v106z" />
    <glyph glyph-name="afii10017" unicode="&#x410;" horiz-adv-x="575" 
d="M262 714h46l283 -714h-55l-90 226h-328l-46 -113.5l-45 -112.5h-54zM428 274l-37.5 93.5l-34.5 88l-35 88l-37 95.5l-44.5 -110.5l-44.5 -108.5l-29 -72.5l-30 -73.5h292z" />
    <glyph glyph-name="afii10018" unicode="&#x411;" horiz-adv-x="611" 
d="M44 714h480v-48h-432v-254h259q109 0 165.5 -53t56.5 -150q0 -47 -16 -85.5t-46 -66t-73 -42.5t-97 -15h-297v714zM350 48q40 0 72 12t54.5 33.5t35 51t12.5 65.5q0 75 -44 114.5t-130 39.5h-258v-316h258z" />
    <glyph glyph-name="afii10019" unicode="&#x412;" horiz-adv-x="611" 
d="M37 714h309q43 0 81 -11.5t66 -34.5t44 -58t16 -81q0 -52 -25 -94t-70 -62q50 -20 83 -63.5t33 -109.5q0 -50 -17.5 -87t-49.5 -62.5t-76 -38t-97 -12.5h-297v714zM343 48q39 0 72 9t58 28t39 47.5t14 66.5q0 41 -15.5 69t-41 45.5t-57.5 25.5t-66 8h-261v-299h258z
M346 395q31 0 60 8.5t51 25.5t35 42t13 58q0 35 -12.5 60.5t-34 42.5t-50.5 25.5t-62 8.5h-261v-271h261z" />
    <glyph glyph-name="afii10020" unicode="&#x413;" horiz-adv-x="463" 
d="M42 714h431v-48h-382v-666h-49v714z" />
    <glyph glyph-name="afii10021" unicode="&#x414;" horiz-adv-x="690" 
d="M-8 48h70q38 73 59 152.5t31 158.5t12 152t2 132v71h431v-666h77v-217h-48v169h-585v-169h-49v217zM549 48v618h-335v-54q0 -56 -2 -124.5t-11 -142.5t-28.5 -150t-55.5 -147h432z" />
    <glyph glyph-name="afii10022" unicode="&#x415;" horiz-adv-x="537" 
d="M43 714h484v-48h-435v-271h409v-48h-409v-299h439v-48h-488v714z" />
    <glyph glyph-name="afii10024" unicode="&#x416;" horiz-adv-x="978" 
d="M309 402l-72 73.5l-75 75.5l-39 40l-42.5 44l-42 42.5l-36.5 36.5h67l386 -396v396h48v-396l35.5 35l33.5 36l158.5 163.5l157.5 161.5h69l-307 -313l85 -99.5l87 -102.5l85.5 -101l83.5 -98h-65l-311 368l-56 -58.5l-56 -58.5v-251h-48v250l-28.5 30.5l-27.5 29.5
l-27 27l-29 30l-77 -90.5l-76 -90.5l-79.5 -93.5l-78.5 -92.5h-64z" />
    <glyph glyph-name="afii10025" unicode="&#x417;" horiz-adv-x="594" 
d="M298 -16q-63 0 -112.5 19t-84.5 54.5t-53.5 86.5t-18.5 116l48 -8q0 -103 57 -161t164 -58q47 0 86 13t66.5 37t43 57.5t15.5 73.5q0 63 -45.5 100.5t-126.5 37.5h-110v48h110q75 0 117 34.5t42 100.5q0 71 -50.5 109t-139.5 38q-101 0 -150.5 -48t-58.5 -141h-50
q12 112 74.5 175t184.5 63q54 0 98 -13t75.5 -38t48.5 -61.5t17 -83.5q0 -54 -21.5 -95.5t-71.5 -63.5q44 -20 75 -63t31 -99q0 -52 -19.5 -94.5t-54 -72.5t-82 -46.5t-104.5 -16.5z" />
    <glyph glyph-name="afii10026" unicode="&#x418;" horiz-adv-x="648" 
d="M44 714h48v-638l223.5 319l223.5 319h52v-714h-48v638l-110.5 -156l-108.5 -156l-113.5 -162.5l-114.5 -163.5h-52v714z" />
    <glyph glyph-name="afii10027" unicode="&#x419;" horiz-adv-x="648" 
d="M44 714h48v-638l223.5 319l223.5 319h52v-714h-48v638l-110.5 -156l-108.5 -156l-113.5 -162.5l-114.5 -163.5h-52v714zM316 769q-110 0 -134 132h48q16 -83 87 -83q74 0 87 83h49q-23 -132 -137 -132z" />
    <glyph glyph-name="afii10028" unicode="&#x41a;" horiz-adv-x="593" 
d="M44 714h48v-398l94.5 83l94.5 83l132.5 116.5l132.5 115.5h75l-350 -308l114 -128.5l117 -131.5l66.5 -74l64.5 -72h-64l-335 376l-27.5 -25l-27.5 -24q-22 -18 -43 -37l-44 -39v-251h-48v714z" />
    <glyph glyph-name="afii10029" unicode="&#x41b;" horiz-adv-x="679" 
d="M50 -5q-31 0 -68 8v50q40 -10 67 -10q48 0 75 51.5t39.5 142t15.5 213t3 264.5h438v-714h-48v666h-342q0 -142 -4 -264.5t-21.5 -213t-53.5 -142t-101 -51.5z" />
    <glyph glyph-name="afii10030" unicode="&#x41c;" horiz-adv-x="780" 
d="M45 714h56l282 -638l84 190.5l84 192.5l56.5 127.5l55.5 127.5h56v-714h-49l-2 605l-50.5 -113.5l-49.5 -113.5l-83 -189.5l-83 -188.5h-40l-269 606v-606h-48v714z" />
    <glyph glyph-name="afii10031" unicode="&#x41d;" horiz-adv-x="648" 
d="M44 714h48v-319h451v319h48v-714h-48v347h-451v-347h-48v714z" />
    <glyph glyph-name="afii10032" unicode="&#x41e;" horiz-adv-x="721" 
d="M354 -16q-80 0 -141.5 29.5t-103.5 80.5t-64 119t-22 144t22 144t64 119t103.5 81t141.5 30t141.5 -30t103.5 -81t63.5 -119t21.5 -144t-21.5 -144t-63.5 -119t-103.5 -80.5t-141.5 -29.5zM354 32q66 0 118 24.5t88.5 67.5t56 102.5t19.5 130.5q0 70 -19.5 130t-56 103
t-88.5 67.5t-118 24.5t-118.5 -24.5t-89 -67.5t-56 -103t-19.5 -130q0 -71 19.5 -130.5t56 -102.5t89 -67.5t118.5 -24.5z" />
    <glyph glyph-name="afii10033" unicode="&#x41f;" horiz-adv-x="642" 
d="M44 714h541v-714h-48v666h-445v-666h-48v714z" />
    <glyph glyph-name="afii10034" unicode="&#x420;" horiz-adv-x="574" 
d="M44 714h291q106 0 164.5 -50.5t58.5 -150.5q0 -49 -17.5 -86.5t-48 -63t-73 -38.5t-93.5 -13h-234v-312h-48v714zM335 360q37 0 69 10t55.5 29.5t37 48t13.5 65.5q0 75 -43 114t-132 39h-243v-306h243z" />
    <glyph glyph-name="afii10035" unicode="&#x421;" horiz-adv-x="685" 
d="M341 -16q-71 0 -131 27.5t-103 76t-67 116t-24 147.5q0 65 18.5 132.5t59 122.5t104.5 90t155 35q72 0 125.5 -25.5t89 -64t54 -82.5t19.5 -80h-47q-3 37 -21.5 73.5t-49.5 65.5t-74.5 46.5t-95.5 17.5q-81 0 -136 -32.5t-89 -82t-49 -107.5t-15 -109q0 -62 18.5 -120
t53.5 -102t87 -70.5t118 -26.5q58 0 104.5 20t80.5 56t55 84.5t29 105.5h49q-9 -69 -34.5 -126.5t-66 -99.5t-95 -65t-122.5 -23z" />
    <glyph glyph-name="afii10036" unicode="&#x422;" 
d="M221 666h-246v48h541v-48h-247v-666h-48v666z" />
    <glyph glyph-name="afii10037" unicode="&#x423;" horiz-adv-x="537" 
d="M106 -10q-17 0 -38 2t-40 11v53q21 -10 43 -14t37 -4q30 0 56 19t46 59l27 53l-64 133.5l-67 139.5l-67 139l-64 133h54l235 -487l89.5 185l90.5 187l27 57.5l28 57.5h52l-300 -622q-27 -57 -63.5 -79.5t-81.5 -22.5z" />
    <glyph glyph-name="afii10038" unicode="&#x424;" horiz-adv-x="738" 
d="M338 67q-72 2 -132 22t-103 57t-67 90.5t-24 123.5q0 69 24 123t67 91t103 57.5t132 22.5v77h47v-77q72 -2 132 -22t103 -57.5t67 -91.5t24 -123q0 -70 -24 -123.5t-67 -90.5t-103 -57t-132 -22v-83h-47v83zM338 606q-64 -2 -115 -18.5t-87 -47.5t-55 -76.5t-19 -103.5
t19 -103t55 -76t87 -47.5t115 -18.5v491zM385 115q64 1 115 18t87 47.5t55 75.5t19 104q0 58 -19 103t-55 76t-87 48t-115 19v-491z" />
    <glyph glyph-name="afii10039" unicode="&#x425;" horiz-adv-x="520" 
d="M226 367l-22 28.5l-22 28.5l-109.5 147l-107.5 143h61l229 -308l117 154l116 154h59l-260 -347l65 -88l67 -91l71 -95l69 -93h-61l-243 327l-89.5 -120l-90.5 -122l-33 -42.5l-31 -42.5h-60z" />
    <glyph glyph-name="afii10040" unicode="&#x426;" horiz-adv-x="664" 
d="M601 0h-556v714h48v-666h431v666h48v-666h77v-217h-48v169z" />
    <glyph glyph-name="afii10041" unicode="&#x427;" horiz-adv-x="578" 
d="M474 329q-40 -17 -99 -32.5t-122 -15.5q-84 0 -130 15.5t-68 47t-26.5 79t-4.5 111.5v180h48v-179q0 -53 3 -92t20.5 -64.5t54 -37.5t103.5 -12q27 0 56 4.5t58 12t56.5 17t50.5 19.5v332h49v-714h-49v329z" />
    <glyph glyph-name="afii10042" unicode="&#x428;" horiz-adv-x="988" 
d="M48 714h47v-666h365v666h48v-666h364v666h49v-714h-873v714z" />
    <glyph glyph-name="afii10043" unicode="&#x429;" horiz-adv-x="1024" 
d="M949 0h-901v714h48v-666h364v666h49v-666h364v666h49v-666h76v-217h-49v169z" />
    <glyph glyph-name="afii10044" unicode="&#x42a;" horiz-adv-x="718" 
d="M182 666h-208v48h255v-302h244q109 0 166 -53t57 -150q0 -47 -16 -85.5t-46 -66t-73 -42.5t-97 -15h-282v666zM472 48q40 0 72 12t54.5 33.5t35 51t12.5 65.5q0 75 -44 114.5t-130 39.5h-243v-316h243z" />
    <glyph glyph-name="afii10045" unicode="&#x42b;" horiz-adv-x="778" 
d="M45 714h48v-302h245q109 0 166 -53t57 -150q0 -47 -16 -85.5t-46.5 -66t-73.5 -42.5t-97 -15h-283v714zM337 48q40 0 72 12t55 33.5t35.5 51t12.5 65.5q0 75 -44.5 114.5t-130.5 39.5h-244v-316h244zM668 714h49v-714h-49v714z" />
    <glyph glyph-name="afii10046" unicode="&#x42c;" horiz-adv-x="575" 
d="M44 714h48v-302h243q109 0 166 -53t57 -150q0 -47 -16 -85.5t-46 -66t-73 -42.5t-97 -15h-282v714zM334 48q40 0 72.5 12t55 33.5t35 51t12.5 65.5q0 75 -44 114.5t-131 39.5h-242v-316h242z" />
    <glyph glyph-name="afii10047" unicode="&#x42d;" horiz-adv-x="685" 
d="M324 -16q-63 0 -115.5 20t-92 56.5t-65.5 86.5t-36 110h48q10 -48 32.5 -89t56 -71t77 -47.5t95.5 -17.5q68 0 119.5 25.5t86 69t52.5 100.5t19 120h-402v48h400q-5 65 -27.5 118t-59 90.5t-85 58t-105.5 20.5q-44 0 -84 -13t-73 -37t-56.5 -59t-35.5 -80h-48
q10 51 37 94.5t66 75.5t88 50t103 18q73 0 134 -27.5t104.5 -77t67.5 -118.5t24 -152q0 -73 -20.5 -140.5t-61.5 -119t-101.5 -82t-141.5 -30.5z" />
    <glyph glyph-name="afii10048" unicode="&#x42e;" horiz-adv-x="903" 
d="M549 -16q-76 0 -134 29t-97 78.5t-59 116t-21 140.5h-143v-348h-48v714h48v-319h144q4 70 26 131.5t61 107t95 71.5t128 26q77 0 135 -30t97 -81t58.5 -119t19.5 -144t-19.5 -144t-58.5 -119t-97 -80.5t-135 -29.5zM549 32q62 0 110.5 24.5t82.5 67.5t51.5 102.5
t17.5 130.5q0 70 -17.5 130t-51.5 103t-82.5 67.5t-110.5 24.5t-111 -24.5t-83 -67.5t-51.5 -103t-17.5 -130q0 -71 17.5 -130.5t51.5 -102.5t83 -67.5t111 -24.5z" />
    <glyph glyph-name="afii10049" unicode="&#x42f;" horiz-adv-x="613" 
d="M234 313q-44 4 -80 18.5t-61.5 40t-40 61t-14.5 80.5q0 97 56 149t168 52h294v-714h-48v311h-213l-22.5 -27.5l-22.5 -27.5l-103.5 -128l-102.5 -128h-61zM508 359v307h-250q-86 0 -128 -39.5t-42 -110.5q0 -76 47 -116.5t123 -40.5h250z" />
    <glyph glyph-name="afii10065" unicode="&#x430;" horiz-adv-x="481" 
d="M190 -11q-80 0 -128.5 36.5t-48.5 108.5q0 48 16 78.5t42 48t58 24.5t64 9q6 1 14 1h11q38 2 66.5 5t47.5 9.5t28.5 17.5t9.5 31q0 19 -3.5 40.5t-16.5 39t-38.5 29t-68.5 11.5q-70 0 -108.5 -37t-43.5 -106h-48q2 40 15 75t38 61t61.5 40.5t85.5 14.5q35 0 66.5 -7.5
t55 -25.5t38 -47.5t15.5 -73.5v-308q0 -8 6 -12t15 -5t20 -0.5t20 1.5v-48h-42q-26 0 -46.5 13t-20.5 49v9q-26 -35 -72 -58.5t-108 -23.5zM189 36q44 0 77.5 15t56.5 39t35 55.5t12 64.5l-2 60q-26 -13 -63 -16.5t-75 -5.5q-4 0 -8.5 -0.5t-9.5 -0.5q-10 0 -14 -1
q-26 -2 -51 -6.5t-44 -16.5t-30.5 -33t-11.5 -56q0 -18 6.5 -36t21.5 -31.5t39.5 -22t60.5 -8.5z" />
    <glyph glyph-name="afii10066" unicode="&#x431;" horiz-adv-x="530" 
d="M264 -11q-102 0 -154.5 51t-72.5 149q-4 20 -5 42.5t-1 49.5q0 80 8 147.5t32 117.5t66.5 81t111.5 39l118 13h-1q22 3 36.5 11t18.5 28h49q-8 -38 -32 -59t-75 -28q-12 -2 -26 -3t-26 -3q-27 -3 -51 -6q-79 -12 -121.5 -62t-55.5 -142q37 50 87.5 73t94.5 23
q53 0 95.5 -17.5t72.5 -50.5t46.5 -80t16.5 -106t-17.5 -108t-48 -84.5t-73 -55.5t-93.5 -20zM265 36q40 0 73.5 16t58 45.5t38 70t13.5 89.5q0 48 -13.5 86.5t-38 65t-58 41t-73.5 14.5q-37 0 -71 -14.5t-59.5 -40.5t-41 -63.5t-15.5 -83.5q0 -51 11.5 -92.5t34.5 -71
t58.5 -46t82.5 -16.5z" />
    <glyph glyph-name="afii10067" unicode="&#x432;" horiz-adv-x="488" 
d="M45 514h234q69 0 109.5 -35.5t40.5 -95.5q0 -83 -60 -113q33 -16 54.5 -46.5t21.5 -77.5q0 -34 -13 -61t-37 -46t-57.5 -29t-73.5 -10h-219v514zM270 48q60 0 93.5 24t33.5 74q0 48 -32.5 73.5t-92.5 25.5h-179v-197h177zM272 292q51 0 80.5 24.5t29.5 66.5q0 43 -29 63
t-80 20h-180v-174h179z" />
    <glyph glyph-name="afii10068" unicode="&#x433;" horiz-adv-x="368" 
d="M49 514h325v-48h-277v-466h-48v514z" />
    <glyph glyph-name="afii10069" unicode="&#x434;" horiz-adv-x="527" 
d="M-7 48h59q25 49 39 106.5t21.5 118t9.5 122t2 119.5h330v-466h64v-205h-48v157h-429v-157h-48v205zM407 48v418h-236q0 -47 -2 -99.5t-8.5 -107t-20 -108.5t-36.5 -103h303z" />
    <glyph glyph-name="afii10070" unicode="&#x435;" 
d="M243 -11q-60 0 -103 20.5t-70.5 56.5t-40.5 85t-13 106q0 64 19 114t50.5 84.5t72.5 52.5t85 18q60 0 104 -24.5t71.5 -64.5t40 -91.5t11.5 -106.5h-405q3 -41 14.5 -77.5t33 -64.5t53 -44.5t75.5 -16.5q72 0 119 40t58 121h48q-14 -98 -74.5 -153t-148.5 -55zM422 286
q-3 38 -15.5 73t-35 61.5t-54 42t-72.5 15.5q-35 0 -65.5 -14t-54 -39t-39 -60.5t-20.5 -78.5h356z" />
    <glyph glyph-name="afii10072" unicode="&#x436;" horiz-adv-x="702" 
d="M-32 0l233 295l-41.5 43l-44.5 46v-1l-66.5 68l-62.5 63h67l264 -267v267h48v-267l41 41.5l41 41.5l91.5 92.5l90.5 91.5h69l-217 -219l54.5 -70l57.5 -72l61 -78l60 -75h-60l-208 262l-40.5 -41l-40.5 -41v-180h-48v180l-39.5 40.5l-40.5 41.5l-47 -58.5l-46 -59.5
l-58 -72.5l-57 -71.5h-61z" />
    <glyph glyph-name="afii10073" unicode="&#x437;" horiz-adv-x="463" 
d="M216 -14q-101 0 -149 55t-48 151l47 -8q0 -72 38 -112t112 -40q32 0 60.5 9t49.5 25t33.5 38.5t12.5 50.5q0 42 -31 66t-88 24h-83v48h83q52 0 81 22t29 67q0 47 -38.5 71.5t-99.5 24.5q-70 0 -103.5 -31.5t-41.5 -97.5h-47q7 84 52 130.5t140 46.5q84 0 134.5 -37.5
t50.5 -106.5q0 -36 -13.5 -65.5t-45.5 -46.5q30 -17 49.5 -47t19.5 -68t-14.5 -69t-41.5 -53t-64.5 -34.5t-83.5 -12.5z" />
    <glyph glyph-name="afii10074" unicode="&#x438;" horiz-adv-x="510" 
d="M45 514h48l2 -437l74 106.5l79 113.5l78.5 112.5l73.5 104.5h51v-514h-47l-2 437l-39 -54l-135 -193l-132 -190h-51v514z" />
    <glyph glyph-name="afii10075" unicode="&#x439;" horiz-adv-x="510" 
d="M45 514h48l2 -437l74 106.5l79 113.5l78.5 112.5l73.5 104.5h51v-514h-47l-2 437l-155 -219l-151 -218h-51v514zM253 568q-108 0 -131 130h47q16 -82 85 -82q74 0 86 82h49q-23 -130 -136 -130z" />
    <glyph glyph-name="afii10076" unicode="&#x43a;" horiz-adv-x="444" 
d="M45 514h48v-273l118.5 106.5l121.5 108.5l33 29.5l32 28.5h70l-238 -213l57.5 -71.5l59.5 -73.5l63.5 -79.5l61.5 -76.5h-61l-216 269l-51 -44.5l-51 -45.5v-179h-48v514z" />
    <glyph glyph-name="afii10077" unicode="&#x43b;" horiz-adv-x="529" 
d="M51 -6q-37 0 -68 9v52q19 -5 36 -9t31 -4q34 0 52.5 39.5t27 105t10 150.5t1.5 177h327v-514h-47v466h-232q0 -91 -2.5 -176t-16 -151t-41 -105.5t-78.5 -39.5z" />
    <glyph glyph-name="afii10078" unicode="&#x43c;" horiz-adv-x="612" 
d="M46 514h53l198 -442l35 76.5l35 76.5l64.5 145l63.5 144h53v-514h-47l-2 406q-17 -41 -35.5 -81l-36.5 -82l-55 -122.5l-53 -120.5h-42l-183 410v-410h-48v514z" />
    <glyph glyph-name="afii10079" unicode="&#x43d;" 
d="M45 514h47v-223h302v223h48v-514h-48v243h-302v-243h-47v514z" />
    <glyph glyph-name="afii10080" unicode="&#x43e;" horiz-adv-x="519" 
d="M252 -11q-56 0 -99.5 22t-73 59t-45 85.5t-15.5 101.5q0 52 15 101t45 86t73.5 59.5t100.5 22.5q56 0 99 -22.5t72.5 -59.5t45 -86t15.5 -101q0 -53 -15 -101.5t-44.5 -85.5t-73 -59t-100.5 -22zM253 36q45 0 79.5 18t58 49t35.5 70.5t12 83.5q0 42 -12 82t-35.5 71
t-58 49.5t-79.5 18.5q-46 0 -80.5 -18.5t-58 -49.5t-35.5 -71t-12 -82q0 -44 12 -83.5t35.5 -70.5t58 -49t80.5 -18z" />
    <glyph glyph-name="afii10081" unicode="&#x43f;" horiz-adv-x="490" 
d="M44 514h388v-514h-48v466h-292v-466h-48v514z" />
    <glyph glyph-name="afii10082" unicode="&#x440;" horiz-adv-x="537" 
d="M46 514h47l2 -84q28 45 74 70.5t106 25.5q51 0 92 -20t69.5 -56t44 -85t15.5 -107q0 -54 -14.5 -103t-42.5 -85.5t-69.5 -58.5t-94.5 -22q-61 0 -107 25.5t-75 68.5v-249h-47v680zM275 36q46 0 79 20t54 51.5t31 71t10 79.5q0 44 -11 84t-32.5 70t-54.5 48t-76 18
q-44 0 -77.5 -18t-57 -48t-35.5 -70t-12 -84q0 -108 49.5 -165t132.5 -57z" />
    <glyph glyph-name="afii10083" unicode="&#x441;" 
d="M251 -11q-55 0 -97.5 20.5t-72 56t-44.5 82t-15 98.5q0 55 14.5 106t44 89.5t75 61.5t107.5 23q37 0 70.5 -12.5t60.5 -36.5t45 -59t23 -80h-48q-11 72 -53 106t-98 34q-54 0 -91.5 -21t-60 -54.5t-32.5 -75t-10 -81.5q0 -41 12 -79t35 -67t57 -46.5t78 -17.5q33 0 62 11
t51 31.5t36 50t17 65.5h48q-4 -47 -21.5 -85t-46 -64.5t-66 -41t-80.5 -14.5z" />
    <glyph glyph-name="afii10084" unicode="&#x442;" horiz-adv-x="407" 
d="M175 466h-191v48h428v-48h-190v-466h-47v466z" />
    <glyph glyph-name="afii10085" unicode="&#x443;" horiz-adv-x="407" 
d="M34 -119q26 0 44.5 1.5t31.5 7t22 16t17 29.5l32 84l-35 84l-36 85l-69.5 165l-67.5 161h52l183 -433l60 159.5l60 158.5l21.5 58l21.5 57h52l-232 -603q-11 -28 -27 -43.5t-36 -23t-43.5 -9t-50.5 -1.5v47z" />
    <glyph glyph-name="afii10086" unicode="&#x444;" horiz-adv-x="756" 
d="M344 37q-23 -20 -55.5 -34t-67.5 -14q-42 0 -77.5 17.5t-61 52t-39.5 84t-14 114.5q0 136 52.5 202.5t140.5 66.5q34 0 66.5 -12t55.5 -36v225h47v-225q25 20 58.5 34t63.5 14q88 0 140.5 -66.5t52.5 -202.5q0 -65 -14.5 -114.5t-40 -84t-60.5 -52t-77 -17.5
q-35 0 -68 13.5t-55 33.5v-202h-47v203zM221 37q24 0 46 7.5t39 21.5t27.5 34t10.5 45v227q0 24 -10.5 43.5t-27.5 33.5t-39 21.5t-45 7.5q-64 0 -104.5 -54t-40.5 -167q0 -55 11 -96t30.5 -68.5t46 -41.5t56.5 -14zM514 37q30 0 56.5 14t46 41.5t30.5 68.5t11 96
q0 113 -40.5 167t-104.5 54q-23 0 -45 -7.5t-39 -21.5t-27.5 -33.5t-10.5 -43.5v-227q0 -25 10.5 -45t27.5 -34t39 -21.5t46 -7.5z" />
    <glyph glyph-name="afii10087" unicode="&#x445;" horiz-adv-x="407" 
d="M168 266l-57 74l-57 76l-37.5 50t-36.5 48h62l155 -211l32.5 43l32.5 42l96 126h58l-189 -248l32.5 -42.5l33.5 -43.5l71.5 -92l68.5 -88h-59l-177 229q-13 -16 -24.5 -32.5t-24.5 -32.5l-63.5 -83l-62.5 -81h-58z" />
    <glyph glyph-name="afii10088" unicode="&#x446;" horiz-adv-x="510" 
d="M455 0h-409v514h47v-466h292v466h48v-466h70v-205h-48v157z" />
    <glyph glyph-name="afii10089" unicode="&#x447;" horiz-adv-x="462" 
d="M357 224q-32 -12 -74 -23t-90 -11q-40 0 -71.5 7.5t-53 25t-32.5 47.5t-11 75v169h48v-167q0 -31 8.5 -52t24 -33.5t37.5 -18t50 -5.5q48 0 90 11.5t74 26.5v238h48v-514h-48v224z" />
    <glyph glyph-name="afii10090" unicode="&#x448;" horiz-adv-x="758" 
d="M48 514h48v-466h249v466h47v-466h249v466h47v-514h-640v514z" />
    <glyph glyph-name="afii10091" unicode="&#x449;" horiz-adv-x="778" 
d="M712 0h-663v514h48v-466h248v466h48v-466h249v466h48v-466h69v-205h-47v157z" />
    <glyph glyph-name="afii10092" unicode="&#x44a;" horiz-adv-x="561" 
d="M147 466h-163v48h211v-214h181q78 0 120 -39.5t42 -108.5t-45 -110.5t-123 -41.5h-223v466zM370 48q59 0 90 28t31 76t-28 74.5t-87 26.5h-181v-205h175z" />
    <glyph glyph-name="afii10093" unicode="&#x44b;" horiz-adv-x="611" 
d="M46 514h48v-214h172q78 0 119.5 -39.5t41.5 -108.5t-45 -110.5t-123 -41.5h-213v514zM259 48q59 0 90 28t31 76t-28.5 74.5t-85.5 26.5h-172v-205h165zM500 514h48v-514h-48v514z" />
    <glyph glyph-name="afii10094" unicode="&#x44c;" horiz-adv-x="453" 
d="M44 514h48v-214h182q78 0 120 -39.5t42 -108.5t-45.5 -110.5t-123.5 -41.5h-223v514zM267 48q60 0 90.5 28t30.5 76t-27.5 74.5t-86.5 26.5h-182v-205h175z" />
    <glyph glyph-name="afii10095" unicode="&#x44d;" 
d="M231 -11q-43 0 -80 15t-65.5 41.5t-46.5 63.5t-22 82h48q12 -74 56 -115t112 -41q39 0 71 15t55.5 42t37 65.5t15.5 85.5h-264v48h261q-4 43 -19 78t-39.5 59.5t-56 37.5t-68.5 13q-63 0 -104 -35.5t-52 -95.5h-48q14 82 67.5 130t137.5 48q52 0 95 -19.5t74 -54.5
t47.5 -85t16.5 -111t-16 -110t-46 -84t-72.5 -54t-94.5 -19z" />
    <glyph glyph-name="afii10096" unicode="&#x44e;" horiz-adv-x="699" 
d="M424 -12q-49 0 -91 18.5t-73 52.5t-49 80.5t-19 102.5h-96v-242h-48v514h48v-225h98q4 54 23 97.5t49.5 74.5t71 48t87.5 17q51 0 94 -20t74 -55.5t48 -85t17 -108.5t-17 -108.5t-48 -85t-74 -55.5t-95 -20zM425 36q41 0 75 16t59 45.5t38.5 70t13.5 89.5
q0 48 -13.5 88.5t-38.5 70t-59 46t-75 16.5q-40 0 -74 -16.5t-58.5 -45.5t-38.5 -68.5t-14 -85.5q0 -51 13.5 -92.5t37.5 -71t58 -46t76 -16.5z" />
    <glyph glyph-name="afii10097" unicode="&#x44f;" horiz-adv-x="477" 
d="M155 216q-57 9 -92.5 48.5t-35.5 104.5q0 69 45 107t123 38h224v-514h-48v213h-156l-42 -50.5l-43 -50.5l-46.5 -56.5l-46.5 -55.5h-63zM371 260v206h-176q-58 0 -89.5 -24.5t-31.5 -72.5q0 -54 32 -81.5t85 -27.5h180z" />
    <glyph glyph-name="afii10071" unicode="&#x451;" 
d="M243 -11q-60 0 -103 20.5t-70.5 56.5t-40.5 85t-13 106q0 64 19 114t50.5 84.5t72.5 52.5t85 18q60 0 104 -24.5t71.5 -64.5t40 -91.5t11.5 -106.5h-405q3 -41 14.5 -77.5t33 -64.5t53 -44.5t75.5 -16.5q72 0 119 40t58 121h48q-14 -98 -74.5 -153t-148.5 -55zM422 286
q-3 38 -15.5 73t-35 61.5t-54 42t-72.5 15.5q-35 0 -65.5 -14t-54 -39t-39 -60.5t-20.5 -78.5h356zM292 642h48v-105h-48v105zM146 642h47v-105h-47v105z" />
    <glyph glyph-name="afii61352" unicode="&#x2116;" horiz-adv-x="936" 
d="M49 671h49l395 -587v587h48v-671h-48l-395 586v-586h-49v671zM583 227h275v-47h-275v47zM720 281q-29 0 -54 10.5t-43.5 30t-29 46.5t-10.5 60q0 69 38.5 109.5t99.5 40.5t99 -40t38 -107q0 -69 -38.5 -109.5t-99.5 -40.5zM721 328q37 0 63.5 28.5t26.5 73.5t-26.5 73
t-63.5 28q-18 0 -34.5 -7.5t-29 -20.5t-20 -31t-7.5 -38q0 -47 26.5 -76.5t64.5 -29.5z" />
    <glyph glyph-name="uni10D0" unicode="&#x10d0;" horiz-adv-x="568" 
d="M508 263v-55q-8 -103 -74 -162.5t-150 -59.5q-99 0 -161.5 64.5t-62.5 184.5q0 77 41 150l53 -19q-40 -64 -40 -131q0 -113 52 -159t118 -46q58 0 110 40.5t57 136.5v54q0 115 -107.5 202.5t-107.5 262.5h50q0 -163 111 -245t111 -218z" />
    <glyph glyph-name="uni10D1" unicode="&#x10d1;" horiz-adv-x="579" 
d="M114 243q0 -104 52 -158.5t121 -54.5q87 0 132.5 49.5t45.5 151.5v30q0 96 -51 151.5t-131 62.5q-76 -3 -122.5 -56.5t-46.5 -146.5v-29zM239 726q1 -47 63 -79t23 -138q81 -19 137.5 -83t56.5 -165v-30q0 -108 -64 -176.5t-167 -68.5q-99 0 -163.5 71.5t-64.5 185.5v29
q0 94 50.5 159t164.5 79q46 86 -29.5 122t-78.5 94h72z" />
    <glyph glyph-name="uni10D2" unicode="&#x10d2;" horiz-adv-x="619" 
d="M307 482h27q53 56 53 116q0 40 -23.5 66t-76.5 26q-59 0 -82 -21t-23 -49q0 -30 6 -44l-51 -13q-9 29 -9 53q0 44 38.5 80.5t120.5 36.5q84 0 119.5 -43.5t35.5 -91.5q0 -59 -60 -127q70 -23 123.5 -89.5t53.5 -137.5v-22q0 -81 -69.5 -158.5t-179.5 -77.5
q-111 0 -180.5 77.5t-69.5 165.5v20q0 81 69.5 153t177.5 80zM308 440q-84 -8 -137.5 -58.5t-53.5 -133.5v-19q0 -85 56.5 -142t136.5 -57q79 0 136 57t57 135v21q0 73 -51.5 134t-143.5 63z" />
    <glyph glyph-name="uni10D3" unicode="&#x10d3;" horiz-adv-x="899" 
d="M781 457v43q0 91 -43 141t-116 50q-74 0 -124 -50.5t-50 -136.5v-35q0 -90 50 -142t122 -52q53 0 107 51.5t54 130.5zM393 466v30q0 46 22 106q-53 82 -145 83q-74 -1 -116 -52t-42 -108v-42q0 -104 80 -203.5t259.5 -149.5t238.5 -135h-93q-13 44 -89.5 69.5t-148 17
t-184.5 -66.5v66q52 24 191 31q-172 69 -239 178.5t-67 191.5v40q0 74 53 139t158 66q100 -1 166 -88q73 93 179 93q95 0 159 -61.5t64 -174.5v-39q0 -72 -65 -148.5t-158 -76.5q-96 0 -159.5 74.5t-63.5 159.5z" />
    <glyph glyph-name="uni10D4" unicode="&#x10d4;" horiz-adv-x="583" 
d="M508 196q0 -112 -67 -161t-156 -49q-88 0 -156.5 60t-68.5 156q0 74 50 146l46 -26q-42 -50 -42 -120q0 -100 59 -136t112 -36q65 0 117.5 32t52.5 134v351q0 90 -47.5 116t-98.5 26q-65 0 -105.5 -32.5t-40.5 -85.5q0 -47 22 -76l-48 -23q-27 41 -27 99q0 65 54 113
t142 48q87 0 144.5 -46.5t57.5 -138.5v-351z" />
    <glyph glyph-name="uni10D5" unicode="&#x10d5;" horiz-adv-x="579" 
d="M519 181q0 -87 -54.5 -141.5t-171.5 -54.5q-101 0 -167 61t-66 141q0 57 38 113l49 -21q-33 -44 -33 -92q0 -71 53.5 -116t125.5 -45q82 0 127 40t45 103v41q0 74 -51.5 111.5t-99.5 37.5h-42v44h43q41 0 90 41.5t49 110.5q0 59 -44.5 96.5t-114.5 37.5
q-61 0 -105.5 -35.5t-44.5 -89.5q0 -33 23 -77l-50 -20q-27 49 -27 96q0 70 58 119.5t145 49.5q108 0 161.5 -52t53.5 -126q0 -107 -131 -176q141 -47 141 -174v-23z" />
    <glyph glyph-name="uni10D6" unicode="&#x10d6;" horiz-adv-x="620" 
d="M560 218q0 -105 -72 -168.5t-165 -63.5q-88 0 -161.5 64.5t-73.5 167.5v14q0 40 26 91t98 93q-57 6 -104.5 48.5t-47.5 109.5q0 62 45.5 110t135.5 48q93 0 139 -51.5t46 -103.5q0 -49 -20 -80t-56 -52q85 -9 147.5 -69t62.5 -144v-14zM143 221q0 -98 63 -144.5
t117 -46.5q55 0 118.5 46.5t63.5 144.5v5q0 80 -56 132t-126 52q-74 0 -127 -59.5t-53 -125.5v-4zM372 574q0 57 -37 87t-93 30q-52 0 -90 -29.5t-38 -89.5q0 -54 41 -91t87 -37q65 0 97.5 38t32.5 92z" />
    <glyph glyph-name="uni10D7" unicode="&#x10d7;" horiz-adv-x="916" 
d="M465 438q0 160 -50 206t-122 46q-82 0 -130.5 -57t-48.5 -195v-120q0 -150 47.5 -219t125.5 -69q77 0 129 69.5t49 217.5v121zM519 422v-104q0 -159 -62.5 -245.5t-169.5 -86.5q-104 0 -165.5 86.5t-61.5 243.5v125q0 149 65 220.5t167 71.5q60 0 109 -25t77 -77
q73 102 171 102q93 0 150 -74t57 -219v-66q0 -267 -131 -389l-61 19q137 114 137 373v61q0 144 -45.5 198t-95.5 54q-81 0 -166 -103q25 -77 25 -165z" />
    <glyph glyph-name="uni10D8" unicode="&#x10d8;" horiz-adv-x="552" 
d="M60 423q0 155 61 232t156 77q93 0 154 -77t61 -232v-52q0 -207 -71 -375l-65 15q82 112 82 360v52q0 142 -41 204t-120 62q-81 0 -122 -62t-41 -204v-52q0 -246 76 -363l-66 -12q-64 170 -64 375v52z" />
    <glyph glyph-name="uni10D9" unicode="&#x10d9;" horiz-adv-x="582" 
d="M522 224q0 -117 -65.5 -177.5t-164.5 -60.5q-93 0 -162.5 59.5t-69.5 146.5q0 63 30 126l48 -21q-21 -48 -21 -105q0 -79 59.5 -120.5t115.5 -41.5q61 0 117 39.5t56 154.5v11q0 164 -155 186h-86v45h87q114 6 114 119q0 49 -46 126l52 19q49 -92 49 -145
q0 -104 -104 -142q146 -68 146 -207v-12z" />
    <glyph glyph-name="uni10DA" unicode="&#x10da;" horiz-adv-x="1114" 
d="M1054 524v-32q0 -118 -91 -235l-62 14q98 114 98 225v28q0 166 -135 166q-66 0 -103 -54t-37 -113v-142h-49v141q0 85 -33.5 129.5t-84.5 44.5q-52 0 -85.5 -51t-33.5 -123v-141h-48v141q0 60 -37 114t-105 54q-51 0 -92.5 -46.5t-41.5 -132.5v-45q0 -129 117 -217
t335 -113.5t294 -144.5h-87q-13 70 -131 88t-213 5.5t-201 -54.5v54q72 26 189 37q-178 45 -267.5 135.5t-89.5 210.5v44q0 80 45 150.5t145 70.5q54 0 94.5 -30t68.5 -99q18 75 57.5 103.5t86.5 28.5q50 0 86.5 -28.5t58.5 -104.5q15 70 59 100t103 30q190 0 190 -208z" />
    <glyph glyph-name="uni10DB" unicode="&#x10db;" horiz-adv-x="594" 
d="M285 451q-67 0 -119 -54t-52 -150v-15q0 -90 51 -146t120 -56q78 0 131 40.5t53 156.5v20q0 89 -49.5 146.5t-134.5 57.5zM60 247q0 91 62 168t163 77q118 0 184 -105v162q0 73 -42 107t-140 34q-81 0 -117 -19t-36 -51q0 -27 6 -44l-49 -14q-7 22 -7 61q0 45 48.5 77.5
t154.5 32.5q127 0 179.5 -48.5t52.5 -150.5v-307q0 -125 -58.5 -183t-172.5 -58q-97 0 -162.5 72.5t-65.5 173.5v15z" />
    <glyph glyph-name="uni10DC" unicode="&#x10dc;" horiz-adv-x="596" 
d="M480 232v18q1 101 -47 153t-131 52q-75 0 -125.5 -53.5t-50.5 -151.5v-23q0 -96 44.5 -146.5t131.5 -50.5t132.5 54.5t45.5 147.5zM536 232q0 -100 -62.5 -173t-171.5 -73q-108 0 -167.5 62t-59.5 179v384q0 115 136 115h182q47 0 47 21h66q0 -63 -113 -63h-184
q-83 0 -83 -65v-225q63 101 176 101q123 0 178.5 -70.5t55.5 -174.5v-18z" />
    <glyph glyph-name="uni10DD" unicode="&#x10dd;" horiz-adv-x="867" 
d="M407 261v239q0 100 -40 144.5t-92 44.5q-61 0 -111 -50.5t-50 -203.5v-38q0 -240 154 -390l-63 -12q-145 157 -145 402v38q0 167 67.5 232t145.5 65q49 0 90.5 -31.5t70.5 -98.5q28 67 69 98.5t88 31.5q80 0 148 -65t68 -232v-38q0 -245 -148 -402l-66 12
q158 150 158 390v38q0 153 -49.5 203.5t-111.5 50.5q-50 0 -91 -44.5t-41 -144.5v-239h-51z" />
    <glyph glyph-name="uni10DE" unicode="&#x10de;" horiz-adv-x="579" 
d="M475 547q0 -96 -106 -132q150 -60 150 -221v-11q0 -74 -59.5 -135.5t-166.5 -61.5q-101 0 -167 61.5t-66 152.5q0 73 37 136l48 -19q-31 -58 -31 -117q0 -83 56 -126.5t123 -43.5q69 0 120.5 44t51.5 109v10q0 160 -142 200h-46v47h34q117 17 117 107q0 68 -141.5 83
t-141.5 97h55q0 -52 137.5 -68.5t137.5 -111.5z" />
    <glyph glyph-name="uni10DF" unicode="&#x10df;" horiz-adv-x="594" 
d="M519 220q0 -121 -70 -177.5t-164 -56.5q-90 0 -157.5 54.5t-67.5 151.5q0 60 22 120l50 -32q-18 -40 -18 -87q0 -80 52.5 -121.5t118.5 -41.5q67 0 125.5 44.5t58.5 144.5v464q-137 -18 -299 -21q174 -37 174 -142q0 -45 -43.5 -83t-123.5 -38h-77v54l77 -5
q57 -5 86.5 16t29.5 62q0 49 -58 82.5t-132 33.5v49q218 5 373 38h43v-509z" />
    <glyph glyph-name="uni10E0" unicode="&#x10e0;" horiz-adv-x="887" 
d="M773 297q0 93 -46 144t-110 51q-59 0 -101.5 -49t-42.5 -107v-125h-50v125q0 58 -41 107t-107 49q-61 0 -111 -49.5t-50 -145.5v-17q0 -130 159 -273l-71 -12q-142 137 -142 299v12q0 58 22.5 130t110 159t357.5 141l13 -54q-347 -45 -415 -197q94 48 131 48
q69 0 104 -31t65 -95q28 64 67 95t102 31q103 0 156.5 -68.5t53.5 -159.5v-12q0 -162 -151 -298l-70 12q167 141 167 273v17z" />
    <glyph glyph-name="uni10E1" unicode="&#x10e1;" horiz-adv-x="596" 
d="M536 208q0 -84 -62.5 -153t-176.5 -69q-111 0 -166.5 71t-55.5 182v483h51v-483q-2 -107 46 -158t125 -51q75 0 129 44.5t54 133.5q0 93 -77 139t-77 101q0 47 15 111l54 -16q-18 -51 -18 -87q0 -49 79.5 -97.5t79.5 -150.5z" />
    <glyph glyph-name="uni10E2" unicode="&#x10e2;" horiz-adv-x="683" 
d="M330 685q-102 -11 -157.5 -96t-55.5 -212v-38q0 -149 67 -229t164 -80q102 0 161 80t59 229v38q0 125 -53.5 211t-152.5 97l15 -394h-61zM60 377q0 147 77 243.5t188 96.5l-12 31h64l-10 -31q100 0 178 -96.5t78 -243.5v-38q0 -154 -66.5 -253.5t-213.5 -99.5
q-133 0 -208 99.5t-75 253.5v38z" />
    <glyph glyph-name="uni10E3" unicode="&#x10e3;" horiz-adv-x="620" 
d="M545 203q0 -111 -61 -164t-175 -53q-97 0 -161.5 60t-64.5 164q0 94 47 161l46 -26q-36 -52 -36 -130q0 -98 49.5 -141.5t119.5 -43.5q80 0 131.5 33t51.5 147v380q0 99 -89 99q-50 0 -68.5 -38t-18.5 -80v-123h-47v123q0 43 -20 80.5t-49 37.5q-27 0 -43 -12.5
t-50 -12.5h-47v65l52 -21q22 0 40 12t48 12q55 0 91 -111q28 111 120 111q134 0 134 -157v-372z" />
    <glyph glyph-name="uni10E4" unicode="&#x10e4;" horiz-adv-x="846" 
d="M415 525q0 69 -38.5 116.5t-104.5 47.5q-65 0 -111.5 -36.5t-46.5 -126.5v-24q0 -92 43 -133t109 -41q65 0 107 40.5t42 133.5v23zM472 524v-23q-7 -92 -58.5 -156.5t-147.5 -64.5q-87 0 -146.5 66t-59.5 156v24q0 88 55 147t157 59q103 0 159 -86q60 83 171 83
q86 0 135 -53t49 -124q0 -115 -122 -178q109 -37 111 -148v-47q0 -69 -71 -131t-203 -62q-126 0 -202 46.5t-76 102.5v42h57v-42q-2 -41 57.5 -73t162.5 -32t161.5 42.5t58.5 106.5v43q-1 130 -118 130h-50v45h52q128 8 128 155q0 61 -38.5 97.5t-94.5 36.5q-91 0 -148 -84
q21 -50 21 -78z" />
    <glyph glyph-name="uni10E5" unicode="&#x10e5;" horiz-adv-x="594" 
d="M519 198q0 -108 -64 -160t-170 -52q-92 0 -158.5 55t-66.5 144q0 78 26 121l49 -28q-21 -28 -21 -93q0 -69 50 -112t121 -43q72 0 128 37t56 131v227q0 35 -76 113t-151 77q-35 1 -54 -20t-19 -64q0 -40 18 -72l-53 -18q-22 46 -22 90q-1 61 36 93.5t94 32.5
q101 0 227 -144v172h-53v40h103v-527z" />
    <glyph glyph-name="uni10E6" unicode="&#x10e6;" horiz-adv-x="852" 
d="M792 515v-31q0 -102 -99 -196l-60 13q104 77 104 180v30q0 92 -43.5 135t-104.5 43q-64 0 -101.5 -46.5t-37.5 -97.5v-118h-47v118q0 51 -38 97.5t-107 46.5q-64 0 -104 -47t-40 -128v-25q0 -205 255 -306t276 -192h-84q-28 81 -87.5 107t-139.5 12t-156 -80v64
q62 48 181 53q-299 108 -299 345v21q0 87 53.5 153t144.5 66q110 0 171 -121q48 121 160 121q105 0 154 -62t49 -155z" />
    <glyph glyph-name="uni10E7" unicode="&#x10e7;" horiz-adv-x="594" 
d="M519 187q0 -99 -59 -150t-167 -51q-89 0 -161 53.5t-72 153.5q0 16 7 48l54 -14q-7 -20 -7 -34q0 -76 52.5 -119.5t126.5 -43.5q78 0 128.5 35t50.5 122v183q-63 -96 -175 -96q-101 0 -157 56.5t-56 175.5q0 128 95 223l46 -19q-86 -99 -86 -205q0 -114 48 -153.5
t110 -39.5q68 0 121.5 55t53.5 126v228h47v-534z" />
    <glyph glyph-name="uni10E8" unicode="&#x10e8;" horiz-adv-x="611" 
d="M484 399v203q0 56 -19 72t-59 16q-35 0 -61 -30t-26 -52v-31h-54v31q0 22 -21.5 52t-72.5 30q-55 0 -55 -61v-66h-56v71q0 53 32.5 76t77.5 23q72 0 124 -87q49 87 115 87q71 0 99 -37.5t28 -95.5v-373q0 -115 -60 -178t-172 -63q-99 0 -165 72.5t-66 173.5v16
q0 90 63 167t166 77q116 0 182 -93zM302 451q-68 0 -120 -54t-52 -149v-16q0 -90 51 -146t121 -56q75 0 128 45.5t54 151.5v21q0 88 -48.5 145.5t-133.5 57.5z" />
    <glyph glyph-name="uni10E9" unicode="&#x10e9;" horiz-adv-x="596" 
d="M405 593h-51v28q0 32 -26 50.5t-79 18.5q-60 0 -91.5 -39t-31.5 -112v-124q86 102 190 102q103 0 161.5 -61.5t58.5 -149.5v-16q0 -163 -128 -296l-59 11q131 136 131 282v18q0 81 -47.5 126.5t-116.5 45.5q-70 0 -130 -60t-60 -121v-296h-51v543q0 74 43.5 132t135.5 58
q81 0 116.5 -37t35.5 -75q0 -16 -1 -28z" />
    <glyph glyph-name="uni10EA" unicode="&#x10ea;" horiz-adv-x="634" 
d="M545 524q0 -85 -114 -141q143 -67 143 -156v1q0 -118 -71 -180t-176 -62q-119 0 -193 83.5t-74 196.5v177q0 150 95 291l50 -24q-91 -114 -91 -263v-182q0 -104 63 -169.5t154 -65.5q73 0 130.5 47.5t57.5 121.5v36q0 34 -54 79.5t-106 45.5h-66v42h66q50 0 90 35t40 88
q0 39 -77.5 87.5t-77.5 114.5l55 6q0 -54 78 -102.5t78 -106.5z" />
    <glyph glyph-name="uni10EB" unicode="&#x10eb;" horiz-adv-x="594" 
d="M285 445q-67 0 -119 -54t-52 -150v-9q0 -90 51 -146t120 -56q78 0 131 43.5t53 158.5v9q0 89 -49.5 146.5t-134.5 57.5zM519 232q0 -123 -58.5 -184.5t-172.5 -61.5q-97 0 -162.5 72.5t-65.5 173.5v9q0 91 62 168t163 77q118 0 184 -105v343h50v-492z" />
    <glyph glyph-name="uni10EC" unicode="&#x10ec;" horiz-adv-x="610" 
d="M308 445q-85 0 -133.5 -57.5t-48.5 -145.5v-15q0 -96 53.5 -146.5t128.5 -50.5q70 0 121 56t51 146v10q0 95 -52.5 149t-119.5 54zM126 392q67 94 182 94q102 0 165 -77t63 -167v-10q0 -101 -65.5 -173.5t-164.5 -72.5q-112 0 -171.5 68t-59.5 173v372q0 58 26.5 95.5
t98.5 37.5q67 0 116 -87q52 87 124 87q44 0 77 -23t33 -76v-72h-56v67q0 61 -55 61q-53 0 -73 -30t-20 -56v-29h-57v29q0 26 -26 56t-61 30q-39 0 -57.5 -16t-18.5 -73v-208z" />
    <glyph glyph-name="uni10ED" unicode="&#x10ed;" horiz-adv-x="582" 
d="M487 582v-42h-118q0 -96 76.5 -167t76.5 -165v-9q0 -78 -64.5 -145.5t-166.5 -67.5q-104 0 -167.5 68.5t-63.5 149.5q0 41 26 87l50 -21q-19 -30 -19 -66q0 -86 53 -130t121 -44q74 0 124 49t50 122v5q0 98 -72.5 164.5t-72.5 169.5h-89q-63 0 -80 -23t-17 -48
q0 -24 18.5 -44t79.5 -20h26v-42h-26q-73 0 -110 30.5t-37 76.5q0 43 35.5 77.5t110.5 34.5h91v102h-116v43h164v-145h117z" />
    <glyph glyph-name="uni10EE" unicode="&#x10ee;" horiz-adv-x="596" 
d="M75 724h51v-343q67 105 182 105q102 0 165 -77t63 -168v-9q0 -101 -65.5 -173.5t-164.5 -72.5q-112 0 -171.5 71.5t-59.5 173.5v493zM308 445q-85 0 -133.5 -57.5t-48.5 -146.5v-10q0 -93 53.5 -147t128.5 -54q70 0 121 56t51 146v9q0 96 -52.5 150t-119.5 54z" />
    <glyph glyph-name="uni10EF" unicode="&#x10ef;" horiz-adv-x="524" 
d="M387 136q0 -135 -337 -145v53q280 -5 281 92q4 101 -193 115l-31 29l131 179l-176 89l25 40l176 -93l51 68q39 53 22.5 89.5t-58.5 36.5q-44 0 -93 -27l-21 39q36 31 115 31q69 0 97.5 -57t-10.5 -123l-62 -77l170 -87l-22 -38l-168 87l-107 -143q205 -27 210 -158z" />
    <glyph glyph-name="uni10F0" unicode="&#x10f0;" horiz-adv-x="573" 
d="M513 161q0 -65 -60.5 -120t-173.5 -55q-117 0 -173 62t-55 129q0 32 14 72l51 -14q-8 -36 -8 -60q0 -66 53 -105.5t120 -39.5q73 0 124 38.5t51 90.5q0 113 -259 157v43q92 -14 151 -43q27 -11 56.5 6t29.5 53q0 81 -237 116v43q79 -7 133 -29q27 -9 53.5 8.5t26.5 50.5
q0 55 -104 71.5t-104 86.5h56q0 -41 104 -61t104 -98q0 -52 -81 -81q104 -48 104 -115q0 -51 -88 -81q112 -37 112 -125z" />
    <glyph glyph-name="uni10A0" unicode="&#x10a0;" horiz-adv-x="568" 
d="M508 263v-55q-8 -103 -74 -162.5t-150 -59.5q-99 0 -161.5 64.5t-62.5 184.5q0 77 41 150l53 -19q-40 -64 -40 -131q0 -113 52 -159t118 -46q58 0 110 40.5t57 136.5v54q0 115 -107.5 202.5t-107.5 262.5h50q0 -163 111 -245t111 -218z" />
    <glyph glyph-name="uni10A1" unicode="&#x10a1;" horiz-adv-x="579" 
d="M114 243q0 -104 52 -158.5t121 -54.5q87 0 132.5 49.5t45.5 151.5v30q0 96 -51 151.5t-131 62.5q-76 -3 -122.5 -56.5t-46.5 -146.5v-29zM239 726q1 -47 63 -79t23 -138q81 -19 137.5 -83t56.5 -165v-30q0 -108 -64 -176.5t-167 -68.5q-99 0 -163.5 71.5t-64.5 185.5v29
q0 94 50.5 159t164.5 79q46 86 -29.5 122t-78.5 94h72z" />
    <glyph glyph-name="uni10A2" unicode="&#x10a2;" horiz-adv-x="619" 
d="M307 482h27q53 56 53 116q0 40 -23.5 66t-76.5 26q-59 0 -82 -21t-23 -49q0 -30 6 -44l-51 -13q-9 29 -9 53q0 44 38.5 80.5t120.5 36.5q84 0 119.5 -43.5t35.5 -91.5q0 -59 -60 -127q70 -23 123.5 -89.5t53.5 -137.5v-22q0 -81 -69.5 -158.5t-179.5 -77.5
q-111 0 -180.5 77.5t-69.5 165.5v20q0 81 69.5 153t177.5 80zM308 440q-84 -8 -137.5 -58.5t-53.5 -133.5v-19q0 -85 56.5 -142t136.5 -57q79 0 136 57t57 135v21q0 73 -51.5 134t-143.5 63z" />
    <glyph glyph-name="uni10A3" unicode="&#x10a3;" horiz-adv-x="899" 
d="M781 457v43q0 91 -43 141t-116 50q-74 0 -124 -50.5t-50 -136.5v-35q0 -90 50 -142t122 -52q53 0 107 51.5t54 130.5zM393 466v30q0 46 22 106q-53 82 -145 83q-74 -1 -116 -52t-42 -108v-42q0 -104 80 -203.5t259.5 -149.5t238.5 -135h-93q-13 44 -89.5 69.5t-148 17
t-184.5 -66.5v66q52 24 191 31q-172 69 -239 178.5t-67 191.5v40q0 74 53 139t158 66q100 -1 166 -88q73 93 179 93q95 0 159 -61.5t64 -174.5v-39q0 -72 -65 -148.5t-158 -76.5q-96 0 -159.5 74.5t-63.5 159.5z" />
    <glyph glyph-name="uni10A4" unicode="&#x10a4;" horiz-adv-x="583" 
d="M508 196q0 -112 -67 -161t-156 -49q-88 0 -156.5 60t-68.5 156q0 74 50 146l46 -26q-42 -50 -42 -120q0 -100 59 -136t112 -36q65 0 117.5 32t52.5 134v351q0 90 -47.5 116t-98.5 26q-65 0 -105.5 -32.5t-40.5 -85.5q0 -47 22 -76l-48 -23q-27 41 -27 99q0 65 54 113
t142 48q87 0 144.5 -46.5t57.5 -138.5v-351z" />
    <glyph glyph-name="uni10A5" unicode="&#x10a5;" horiz-adv-x="579" 
d="M519 181q0 -87 -54.5 -141.5t-171.5 -54.5q-101 0 -167 61t-66 141q0 57 38 113l49 -21q-33 -44 -33 -92q0 -71 53.5 -116t125.5 -45q82 0 127 40t45 103v41q0 74 -51.5 111.5t-99.5 37.5h-42v44h43q41 0 90 41.5t49 110.5q0 59 -44.5 96.5t-114.5 37.5
q-61 0 -105.5 -35.5t-44.5 -89.5q0 -33 23 -77l-50 -20q-27 49 -27 96q0 70 58 119.5t145 49.5q108 0 161.5 -52t53.5 -126q0 -107 -131 -176q141 -47 141 -174v-23z" />
    <glyph glyph-name="uni10A6" unicode="&#x10a6;" horiz-adv-x="620" 
d="M560 218q0 -105 -72 -168.5t-165 -63.5q-88 0 -161.5 64.5t-73.5 167.5v14q0 40 26 91t98 93q-57 6 -104.5 48.5t-47.5 109.5q0 62 45.5 110t135.5 48q93 0 139 -51.5t46 -103.5q0 -49 -20 -80t-56 -52q85 -9 147.5 -69t62.5 -144v-14zM143 221q0 -98 63 -144.5
t117 -46.5q55 0 118.5 46.5t63.5 144.5v5q0 80 -56 132t-126 52q-74 0 -127 -59.5t-53 -125.5v-4zM372 574q0 57 -37 87t-93 30q-52 0 -90 -29.5t-38 -89.5q0 -54 41 -91t87 -37q65 0 97.5 38t32.5 92z" />
    <glyph glyph-name="uni10A7" unicode="&#x10a7;" horiz-adv-x="916" 
d="M465 438q0 160 -50 206t-122 46q-82 0 -130.5 -57t-48.5 -195v-120q0 -150 47.5 -219t125.5 -69q77 0 129 69.5t49 217.5v121zM519 422v-104q0 -159 -62.5 -245.5t-169.5 -86.5q-104 0 -165.5 86.5t-61.5 243.5v125q0 149 65 220.5t167 71.5q60 0 109 -25t77 -77
q73 102 171 102q93 0 150 -74t57 -219v-66q0 -267 -131 -389l-61 19q137 114 137 373v61q0 144 -45.5 198t-95.5 54q-81 0 -166 -103q25 -77 25 -165z" />
    <glyph glyph-name="uni10A8" unicode="&#x10a8;" horiz-adv-x="552" 
d="M60 423q0 155 61 232t156 77q93 0 154 -77t61 -232v-52q0 -207 -71 -375l-65 15q82 112 82 360v52q0 142 -41 204t-120 62q-81 0 -122 -62t-41 -204v-52q0 -246 76 -363l-66 -12q-64 170 -64 375v52z" />
    <glyph glyph-name="uni10A9" unicode="&#x10a9;" horiz-adv-x="582" 
d="M522 224q0 -117 -65.5 -177.5t-164.5 -60.5q-93 0 -162.5 59.5t-69.5 146.5q0 63 30 126l48 -21q-21 -48 -21 -105q0 -79 59.5 -120.5t115.5 -41.5q61 0 117 39.5t56 154.5v11q0 164 -155 186h-86v45h87q114 6 114 119q0 49 -46 126l52 19q49 -92 49 -145
q0 -104 -104 -142q146 -68 146 -207v-12z" />
    <glyph glyph-name="uni10AA" unicode="&#x10aa;" horiz-adv-x="1114" 
d="M1054 524v-32q0 -118 -91 -235l-62 14q98 114 98 225v28q0 166 -135 166q-66 0 -103 -54t-37 -113v-142h-49v141q0 85 -33.5 129.5t-84.5 44.5q-52 0 -85.5 -51t-33.5 -123v-141h-48v141q0 60 -37 114t-105 54q-51 0 -92.5 -46.5t-41.5 -132.5v-45q0 -129 117 -217
t335 -113.5t294 -144.5h-87q-13 70 -131 88t-213 5.5t-201 -54.5v54q72 26 189 37q-178 45 -267.5 135.5t-89.5 210.5v44q0 80 45 150.5t145 70.5q54 0 94.5 -30t68.5 -99q18 75 57.5 103.5t86.5 28.5q50 0 86.5 -28.5t58.5 -104.5q15 70 59 100t103 30q190 0 190 -208z" />
    <glyph glyph-name="uni10AB" unicode="&#x10ab;" horiz-adv-x="594" 
d="M285 451q-67 0 -119 -54t-52 -150v-15q0 -90 51 -146t120 -56q78 0 131 40.5t53 156.5v20q0 89 -49.5 146.5t-134.5 57.5zM60 247q0 91 62 168t163 77q118 0 184 -105v162q0 73 -42 107t-140 34q-81 0 -117 -19t-36 -51q0 -27 6 -44l-49 -14q-7 22 -7 61q0 45 48.5 77.5
t154.5 32.5q127 0 179.5 -48.5t52.5 -150.5v-307q0 -125 -58.5 -183t-172.5 -58q-97 0 -162.5 72.5t-65.5 173.5v15z" />
    <glyph glyph-name="uni10AC" unicode="&#x10ac;" horiz-adv-x="596" 
d="M480 232v18q1 101 -47 153t-131 52q-75 0 -125.5 -53.5t-50.5 -151.5v-23q0 -96 44.5 -146.5t131.5 -50.5t132.5 54.5t45.5 147.5zM536 232q0 -100 -62.5 -173t-171.5 -73q-108 0 -167.5 62t-59.5 179v384q0 115 136 115h182q47 0 47 21h66q0 -63 -113 -63h-184
q-83 0 -83 -65v-225q63 101 176 101q123 0 178.5 -70.5t55.5 -174.5v-18z" />
    <glyph glyph-name="uni10AD" unicode="&#x10ad;" horiz-adv-x="867" 
d="M407 261v239q0 100 -40 144.5t-92 44.5q-61 0 -111 -50.5t-50 -203.5v-38q0 -240 154 -390l-63 -12q-145 157 -145 402v38q0 167 67.5 232t145.5 65q49 0 90.5 -31.5t70.5 -98.5q28 67 69 98.5t88 31.5q80 0 148 -65t68 -232v-38q0 -245 -148 -402l-66 12
q158 150 158 390v38q0 153 -49.5 203.5t-111.5 50.5q-50 0 -91 -44.5t-41 -144.5v-239h-51z" />
    <glyph glyph-name="uni10AE" unicode="&#x10ae;" horiz-adv-x="579" 
d="M475 547q0 -96 -106 -132q150 -60 150 -221v-11q0 -74 -59.5 -135.5t-166.5 -61.5q-101 0 -167 61.5t-66 152.5q0 73 37 136l48 -19q-31 -58 -31 -117q0 -83 56 -126.5t123 -43.5q69 0 120.5 44t51.5 109v10q0 160 -142 200h-46v47h34q117 17 117 107q0 68 -141.5 83
t-141.5 97h55q0 -52 137.5 -68.5t137.5 -111.5z" />
    <glyph glyph-name="uni10AF" unicode="&#x10af;" horiz-adv-x="594" 
d="M519 220q0 -121 -70 -177.5t-164 -56.5q-90 0 -157.5 54.5t-67.5 151.5q0 60 22 120l50 -32q-18 -40 -18 -87q0 -80 52.5 -121.5t118.5 -41.5q67 0 125.5 44.5t58.5 144.5v464q-137 -18 -299 -21q174 -37 174 -142q0 -45 -43.5 -83t-123.5 -38h-77v54l77 -5
q57 -5 86.5 16t29.5 62q0 49 -58 82.5t-132 33.5v49q218 5 373 38h43v-509z" />
    <glyph glyph-name="uni10B0" unicode="&#x10b0;" horiz-adv-x="887" 
d="M773 297q0 93 -46 144t-110 51q-59 0 -101.5 -49t-42.5 -107v-125h-50v125q0 58 -41 107t-107 49q-61 0 -111 -49.5t-50 -145.5v-17q0 -130 159 -273l-71 -12q-142 137 -142 299v12q0 58 22.5 130t110 159t357.5 141l13 -54q-347 -45 -415 -197q94 48 131 48
q69 0 104 -31t65 -95q28 64 67 95t102 31q103 0 156.5 -68.5t53.5 -159.5v-12q0 -162 -151 -298l-70 12q167 141 167 273v17z" />
    <glyph glyph-name="uni10B1" unicode="&#x10b1;" horiz-adv-x="596" 
d="M536 208q0 -84 -62.5 -153t-176.5 -69q-111 0 -166.5 71t-55.5 182v483h51v-483q-2 -107 46 -158t125 -51q75 0 129 44.5t54 133.5q0 93 -77 139t-77 101q0 47 15 111l54 -16q-18 -51 -18 -87q0 -49 79.5 -97.5t79.5 -150.5z" />
    <glyph glyph-name="uni10B2" unicode="&#x10b2;" horiz-adv-x="683" 
d="M330 685q-102 -11 -157.5 -96t-55.5 -212v-38q0 -149 67 -229t164 -80q102 0 161 80t59 229v38q0 125 -53.5 211t-152.5 97l15 -394h-61zM60 377q0 147 77 243.5t188 96.5l-12 31h64l-10 -31q100 0 178 -96.5t78 -243.5v-38q0 -154 -66.5 -253.5t-213.5 -99.5
q-133 0 -208 99.5t-75 253.5v38z" />
    <glyph glyph-name="uni10B3" unicode="&#x10b3;" horiz-adv-x="620" 
d="M545 203q0 -111 -61 -164t-175 -53q-97 0 -161.5 60t-64.5 164q0 94 47 161l46 -26q-36 -52 -36 -130q0 -98 49.5 -141.5t119.5 -43.5q80 0 131.5 33t51.5 147v380q0 99 -89 99q-50 0 -68.5 -38t-18.5 -80v-123h-47v123q0 43 -20 80.5t-49 37.5q-27 0 -43 -12.5
t-50 -12.5h-47v65l52 -21q22 0 40 12t48 12q55 0 91 -111q28 111 120 111q134 0 134 -157v-372z" />
    <glyph glyph-name="uni10B4" unicode="&#x10b4;" horiz-adv-x="846" 
d="M415 525q0 69 -38.5 116.5t-104.5 47.5q-65 0 -111.5 -36.5t-46.5 -126.5v-24q0 -92 43 -133t109 -41q65 0 107 40.5t42 133.5v23zM472 524v-23q-7 -92 -58.5 -156.5t-147.5 -64.5q-87 0 -146.5 66t-59.5 156v24q0 88 55 147t157 59q103 0 159 -86q60 83 171 83
q86 0 135 -53t49 -124q0 -115 -122 -178q109 -37 111 -148v-47q0 -69 -71 -131t-203 -62q-126 0 -202 46.5t-76 102.5v42h57v-42q-2 -41 57.5 -73t162.5 -32t161.5 42.5t58.5 106.5v43q-1 130 -118 130h-50v45h52q128 8 128 155q0 61 -38.5 97.5t-94.5 36.5q-91 0 -148 -84
q21 -50 21 -78z" />
    <glyph glyph-name="uni10B5" unicode="&#x10b5;" horiz-adv-x="594" 
d="M519 198q0 -108 -64 -160t-170 -52q-92 0 -158.5 55t-66.5 144q0 78 26 121l49 -28q-21 -28 -21 -93q0 -69 50 -112t121 -43q72 0 128 37t56 131v227q0 35 -76 113t-151 77q-35 1 -54 -20t-19 -64q0 -40 18 -72l-53 -18q-22 46 -22 90q-1 61 36 93.5t94 32.5
q101 0 227 -144v172h-53v40h103v-527z" />
    <glyph glyph-name="uni10B6" unicode="&#x10b6;" horiz-adv-x="852" 
d="M792 515v-31q0 -102 -99 -196l-60 13q104 77 104 180v30q0 92 -43.5 135t-104.5 43q-64 0 -101.5 -46.5t-37.5 -97.5v-118h-47v118q0 51 -38 97.5t-107 46.5q-64 0 -104 -47t-40 -128v-25q0 -205 255 -306t276 -192h-84q-28 81 -87.5 107t-139.5 12t-156 -80v64
q62 48 181 53q-299 108 -299 345v21q0 87 53.5 153t144.5 66q110 0 171 -121q48 121 160 121q105 0 154 -62t49 -155z" />
    <glyph glyph-name="uni10B7" unicode="&#x10b7;" horiz-adv-x="594" 
d="M519 187q0 -99 -59 -150t-167 -51q-89 0 -161 53.5t-72 153.5q0 16 7 48l54 -14q-7 -20 -7 -34q0 -76 52.5 -119.5t126.5 -43.5q78 0 128.5 35t50.5 122v183q-63 -96 -175 -96q-101 0 -157 56.5t-56 175.5q0 128 95 223l46 -19q-86 -99 -86 -205q0 -114 48 -153.5
t110 -39.5q68 0 121.5 55t53.5 126v228h47v-534z" />
    <glyph glyph-name="uni10B8" unicode="&#x10b8;" horiz-adv-x="611" 
d="M484 399v203q0 56 -19 72t-59 16q-35 0 -61 -30t-26 -52v-31h-54v31q0 22 -21.5 52t-72.5 30q-55 0 -55 -61v-66h-56v71q0 53 32.5 76t77.5 23q72 0 124 -87q49 87 115 87q71 0 99 -37.5t28 -95.5v-373q0 -115 -60 -178t-172 -63q-99 0 -165 72.5t-66 173.5v16
q0 90 63 167t166 77q116 0 182 -93zM302 451q-68 0 -120 -54t-52 -149v-16q0 -90 51 -146t121 -56q75 0 128 45.5t54 151.5v21q0 88 -48.5 145.5t-133.5 57.5z" />
    <glyph glyph-name="uni10B9" unicode="&#x10b9;" horiz-adv-x="596" 
d="M405 593h-51v28q0 32 -26 50.5t-79 18.5q-60 0 -91.5 -39t-31.5 -112v-124q86 102 190 102q103 0 161.5 -61.5t58.5 -149.5v-16q0 -163 -128 -296l-59 11q131 136 131 282v18q0 81 -47.5 126.5t-116.5 45.5q-70 0 -130 -60t-60 -121v-296h-51v543q0 74 43.5 132t135.5 58
q81 0 116.5 -37t35.5 -75q0 -16 -1 -28z" />
    <glyph glyph-name="uni10BA" unicode="&#x10ba;" horiz-adv-x="634" 
d="M545 524q0 -85 -114 -141q143 -67 143 -156v1q0 -118 -71 -180t-176 -62q-119 0 -193 83.5t-74 196.5v177q0 150 95 291l50 -24q-91 -114 -91 -263v-182q0 -104 63 -169.5t154 -65.5q73 0 130.5 47.5t57.5 121.5v36q0 34 -54 79.5t-106 45.5h-66v42h66q50 0 90 35t40 88
q0 39 -77.5 87.5t-77.5 114.5l55 6q0 -54 78 -102.5t78 -106.5z" />
    <glyph glyph-name="uni10BB" unicode="&#x10bb;" horiz-adv-x="594" 
d="M285 445q-67 0 -119 -54t-52 -150v-9q0 -90 51 -146t120 -56q78 0 131 43.5t53 158.5v9q0 89 -49.5 146.5t-134.5 57.5zM519 232q0 -123 -58.5 -184.5t-172.5 -61.5q-97 0 -162.5 72.5t-65.5 173.5v9q0 91 62 168t163 77q118 0 184 -105v343h50v-492z" />
    <glyph glyph-name="uni10BC" unicode="&#x10bc;" horiz-adv-x="610" 
d="M308 445q-85 0 -133.5 -57.5t-48.5 -145.5v-15q0 -96 53.5 -146.5t128.5 -50.5q70 0 121 56t51 146v10q0 95 -52.5 149t-119.5 54zM126 392q67 94 182 94q102 0 165 -77t63 -167v-10q0 -101 -65.5 -173.5t-164.5 -72.5q-112 0 -171.5 68t-59.5 173v372q0 58 26.5 95.5
t98.5 37.5q67 0 116 -87q52 87 124 87q44 0 77 -23t33 -76v-72h-56v67q0 61 -55 61q-53 0 -73 -30t-20 -56v-29h-57v29q0 26 -26 56t-61 30q-39 0 -57.5 -16t-18.5 -73v-208z" />
    <glyph glyph-name="uni10BD" unicode="&#x10bd;" horiz-adv-x="582" 
d="M487 582v-42h-118q0 -96 76.5 -167t76.5 -165v-9q0 -78 -64.5 -145.5t-166.5 -67.5q-104 0 -167.5 68.5t-63.5 149.5q0 41 26 87l50 -21q-19 -30 -19 -66q0 -86 53 -130t121 -44q74 0 124 49t50 122v5q0 98 -72.5 164.5t-72.5 169.5h-89q-63 0 -80 -23t-17 -48
q0 -24 18.5 -44t79.5 -20h26v-42h-26q-73 0 -110 30.5t-37 76.5q0 43 35.5 77.5t110.5 34.5h91v102h-116v43h164v-145h117z" />
    <glyph glyph-name="uni10BE" unicode="&#x10be;" horiz-adv-x="596" 
d="M75 724h51v-343q67 105 182 105q102 0 165 -77t63 -168v-9q0 -101 -65.5 -173.5t-164.5 -72.5q-112 0 -171.5 71.5t-59.5 173.5v493zM308 445q-85 0 -133.5 -57.5t-48.5 -146.5v-10q0 -93 53.5 -147t128.5 -54q70 0 121 56t51 146v9q0 96 -52.5 150t-119.5 54z" />
    <glyph glyph-name="uni10BF" unicode="&#x10bf;" horiz-adv-x="524" 
d="M387 136q0 -135 -337 -145v53q280 -5 281 92q4 101 -193 115l-31 29l131 179l-176 89l25 40l176 -93l51 68q39 53 22.5 89.5t-58.5 36.5q-44 0 -93 -27l-21 39q36 31 115 31q69 0 97.5 -57t-10.5 -123l-62 -77l170 -87l-22 -38l-168 87l-107 -143q205 -27 210 -158z" />
    <glyph glyph-name="uni10C0" unicode="&#x10c0;" horiz-adv-x="573" 
d="M513 161q0 -65 -60.5 -120t-173.5 -55q-117 0 -173 62t-55 129q0 32 14 72l51 -14q-8 -36 -8 -60q0 -66 53 -105.5t120 -39.5q73 0 124 38.5t51 90.5q0 113 -259 157v43q92 -14 151 -43q27 -11 56.5 6t29.5 53q0 81 -237 116v43q79 -7 133 -29q27 -9 53.5 8.5t26.5 50.5
q0 55 -104 71.5t-104 86.5h56q0 -41 104 -61t104 -98q0 -52 -81 -81q104 -48 104 -115q0 -51 -88 -81q112 -37 112 -125z" />
    <glyph glyph-name="exclam" unicode="!" horiz-adv-x="185" 
d="M67 703h48v-531h-48v531zM67 122h48v-122h-48v122z" />
  </font>
</defs>
</svg>
